<svg xmlns="http://www.w3.org/2000/svg" xmlns:xlink="http://www.w3.org/1999/xlink" width="1080" zoomAndPan="magnify" viewBox="0 0 810 809.999993" height="1080" preserveAspectRatio="xMidYMid meet" version="1.0"><defs><g/><clipPath id="a959e64157"><path d="M 208 129 L 661 129 L 661 615 L 208 615 Z M 208 129 " clip-rule="nonzero"/></clipPath><clipPath id="0b4bf41350"><path d="M 149.332031 202.914062 L 600.390625 80.972656 L 725.070312 542.164062 L 274.015625 664.105469 Z M 149.332031 202.914062 " clip-rule="nonzero"/></clipPath><clipPath id="99b4aa50ca"><path d="M 149.332031 202.914062 L 600.390625 80.972656 L 725.070312 542.164062 L 274.015625 664.105469 Z M 149.332031 202.914062 " clip-rule="nonzero"/></clipPath><clipPath id="348bf1d641"><path d="M 276.351562 238 L 588 238 L 588 538.582031 L 276.351562 538.582031 Z M 276.351562 238 " clip-rule="nonzero"/></clipPath></defs><rect x="-81" width="972" fill="#ffffff" y="-80.999999" height="971.999992" fill-opacity="1"/><rect x="-81" width="972" fill="#8e5f92" y="-80.999999" height="971.999992" fill-opacity="1"/><g clip-path="url(#a959e64157)"><g clip-path="url(#0b4bf41350)"><g clip-path="url(#99b4aa50ca)"><path fill="#fecfa7" d="M 624.101562 257.675781 C 605.015625 241.960938 584.0625 237.441406 561.878906 232.648438 C 559.730469 232.1875 557.570312 231.71875 555.398438 231.242188 C 541.566406 228.183594 539.601562 220.796875 536.476562 204.378906 C 535.539062 199.476562 534.480469 193.914062 532.808594 188.230469 C 528.878906 174.902344 523.8125 161.125 513.433594 150.652344 C 507.398438 144.558594 499.375 139.542969 489.59375 135.742188 C 460.789062 124.550781 426.707031 127.917969 400.644531 144.527344 C 376.433594 159.960938 359.664062 186.496094 355.792969 214.914062 C 331.210938 215.328125 303.558594 217.0625 277.539062 226.625 C 246.515625 238.023438 223.246094 259.4375 213.6875 285.378906 C 205.585938 307.363281 207.136719 334.269531 217.941406 359.191406 C 225.761719 377.230469 237.988281 394.503906 256.195312 413.167969 C 231.265625 445.121094 232.097656 488.8125 237.488281 520.625 C 239.855469 534.589844 243.925781 552.476562 254.492188 566.941406 C 265.945312 582.625 283.355469 592.332031 300.46875 600.484375 C 312.199219 606.074219 325.976562 612.1875 341.050781 614.027344 C 374.257812 618.074219 410.3125 600.472656 442.597656 564.453125 C 443.523438 563.410156 444.800781 561.988281 445.484375 561.726562 C 447.089844 561.078125 452.007812 565.007812 453.605469 566.300781 C 478.808594 586.652344 512.082031 595.820312 542.605469 590.828125 C 545.992188 590.273438 549.328125 589.550781 552.613281 588.664062 C 580.757812 581.054688 604.796875 561.492188 616.765625 535.890625 C 630.683594 506.117188 626.859375 469.296875 607.257812 444.265625 L 606.640625 443.476562 C 605.140625 441.582031 603.59375 439.625 603.441406 438.289062 C 603.136719 435.558594 608.578125 431.484375 611.5 429.296875 C 638.425781 409.140625 656.378906 378.195312 659.527344 346.511719 C 662.910156 312.496094 649.335938 278.457031 624.101562 257.675781 Z M 495.339844 154.316406 C 494.777344 154.753906 494.273438 155.269531 493.839844 155.851562 C 493.785156 155.804688 493.726562 155.761719 493.671875 155.710938 C 493.308594 155.171875 492.953125 154.625 492.59375 154.082031 C 492.839844 153.996094 493.085938 153.914062 493.328125 153.832031 C 493.566406 153.75 493.761719 153.621094 493.96875 153.507812 C 494.429688 153.777344 494.898438 154.039062 495.339844 154.316406 Z M 592.039062 255.394531 C 592.96875 255.753906 593.886719 256.132812 594.804688 256.515625 C 594.339844 256.964844 593.945312 257.492188 593.609375 258.070312 C 593.207031 257.527344 592.710938 257.042969 592.113281 256.640625 C 592.121094 256.21875 592.097656 255.804688 592.039062 255.394531 Z M 552.207031 245.046875 C 551.980469 245.375 551.78125 245.714844 551.601562 246.074219 C 550.195312 245.285156 548.789062 244.5 547.378906 243.714844 C 548.886719 244.214844 550.492188 244.660156 552.207031 245.046875 Z M 528.054688 226.921875 C 528.917969 228.753906 529.929688 230.507812 531.113281 232.171875 C 530.683594 232.105469 530.25 232.082031 529.808594 232.109375 C 529.546875 231.839844 529.273438 231.574219 529.011719 231.304688 C 528.699219 229.84375 528.386719 228.386719 528.054688 226.921875 Z M 475.078125 145.953125 C 474.464844 146.164062 473.882812 146.445312 473.359375 146.824219 C 472.976562 146.484375 472.5625 146.167969 472.070312 145.914062 C 471.277344 145.503906 470.472656 145.152344 469.671875 144.78125 C 471.484375 145.117188 473.292969 145.5 475.078125 145.953125 Z M 492.769531 307.984375 C 492.917969 308.6875 493.0625 309.386719 493.207031 310.089844 C 493.246094 311.160156 493.324219 312.230469 493.371094 313.300781 C 493.289062 313.1875 493.191406 313.105469 493.109375 313 C 492.996094 311.328125 492.882812 309.65625 492.769531 307.984375 Z M 463.816406 245.683594 C 464.183594 246.335938 464.554688 246.984375 464.929688 247.625 C 464.949219 248.632812 464.972656 249.640625 464.992188 250.648438 C 464.53125 249.007812 464.136719 247.355469 463.816406 245.683594 Z M 285.976562 376.394531 C 284.238281 373.164062 282.59375 369.890625 281.042969 366.574219 C 282.859375 369.589844 284.671875 372.605469 286.488281 375.621094 C 286.324219 375.914062 286.15625 376.175781 285.976562 376.394531 Z M 347.976562 443.046875 C 347.945312 441.980469 347.898438 440.917969 347.878906 439.855469 C 347.859375 438.804688 347.613281 437.90625 347.226562 437.132812 C 347.859375 433.699219 348.375 430.238281 348.761719 426.757812 C 348.84375 426.929688 348.933594 427.089844 349.027344 427.25 C 348.421875 432.78125 348.136719 438.339844 348.199219 443.929688 C 348.125 443.632812 348.054688 443.339844 347.976562 443.046875 Z M 408.027344 484.996094 C 408.53125 483.617188 409.027344 482.238281 409.496094 480.855469 C 409.503906 480.859375 409.511719 480.863281 409.519531 480.871094 C 409.429688 483.980469 409.351562 487.089844 409.285156 490.199219 C 408.980469 488.710938 408.652344 487.226562 408.285156 485.746094 C 408.21875 485.484375 408.125 485.238281 408.027344 484.996094 Z M 373.730469 200.710938 C 373.824219 201.253906 373.941406 201.796875 374.089844 202.339844 C 373.175781 204.414062 372.277344 206.5 371.40625 208.589844 C 372.046875 205.929688 372.832031 203.300781 373.730469 200.710938 Z M 344.15625 242.238281 C 344.035156 242.273438 343.910156 242.308594 343.789062 242.347656 C 343.5625 242.375 343.339844 242.40625 343.109375 242.4375 C 342.257812 241.621094 341.21875 240.984375 340.085938 240.582031 C 339.964844 240.503906 339.84375 240.425781 339.726562 240.347656 C 341.558594 240.304688 343.390625 240.285156 345.226562 240.304688 C 344.773438 240.878906 344.410156 241.527344 344.15625 242.238281 Z M 279.921875 240.910156 C 280.753906 240.582031 281.578125 240.238281 282.425781 239.925781 C 283.378906 239.578125 284.339844 239.257812 285.296875 238.933594 C 283.496094 239.683594 281.714844 240.558594 279.992188 241.460938 C 279.976562 241.273438 279.949219 241.089844 279.921875 240.910156 Z M 247.417969 381.40625 C 247.609375 381.441406 247.796875 381.484375 247.992188 381.515625 C 248.15625 381.542969 248.3125 381.550781 248.472656 381.570312 C 249.683594 383.65625 250.976562 385.695312 252.339844 387.6875 C 250.617188 385.578125 248.980469 383.488281 247.417969 381.40625 Z M 239.214844 331.863281 C 238.988281 330.316406 238.792969 328.769531 238.632812 327.214844 C 238.730469 327.0625 238.8125 326.894531 238.898438 326.726562 C 239.015625 327.007812 239.15625 327.285156 239.3125 327.546875 C 239.34375 328.992188 239.308594 330.429688 239.214844 331.863281 Z M 300.234375 486.066406 C 299.890625 485.726562 299.550781 485.382812 299.207031 485.039062 C 299.171875 484.054688 299.136719 483.074219 299.097656 482.089844 L 300.175781 479.835938 C 300.179688 481.910156 300.207031 483.988281 300.234375 486.066406 Z M 402.089844 557.878906 C 404.253906 556.730469 406.398438 555.546875 408.515625 554.324219 C 405.964844 556.523438 403.382812 558.679688 400.769531 560.804688 C 401.226562 559.835938 401.660156 558.859375 402.089844 557.878906 Z M 578.183594 476.574219 C 578.117188 475.28125 578.058594 473.988281 578 472.695312 C 578.394531 472.988281 578.8125 473.234375 579.25 473.445312 C 579.414062 473.847656 579.582031 474.246094 579.746094 474.648438 C 579.136719 475.164062 578.609375 475.8125 578.183594 476.574219 Z M 557.324219 415.613281 C 557.441406 414.804688 557.558594 413.992188 557.675781 413.1875 C 558.109375 412.882812 558.53125 412.527344 558.925781 412.082031 C 560.214844 410.644531 561.441406 409.164062 562.707031 407.710938 C 561.015625 410.410156 559.234375 413.050781 557.324219 415.613281 Z M 606.992188 476.460938 C 607.074219 475.632812 607.113281 474.792969 607.171875 473.957031 C 607.453125 474.824219 607.714844 475.695312 607.96875 476.574219 C 607.648438 476.511719 607.324219 476.476562 606.992188 476.460938 Z M 606.992188 476.460938 " fill-opacity="1" fill-rule="nonzero"/></g></g></g><g clip-path="url(#348bf1d641)"><path fill="#8e5f92" d="M 463.539062 386.398438 C 471.644531 387.785156 479.730469 389.492188 487.546875 394.464844 C 492.089844 397.332031 496.429688 401.316406 500.09375 406.242188 C 503.414062 410.71875 506.203125 416.011719 508.074219 421.992188 C 510 428.148438 510.960938 435.039062 510.960938 442.25 C 510.960938 449.363281 510.023438 456.875 508.152344 464.367188 C 504.496094 478.980469 497.261719 493.464844 492.199219 503.601562 L 492.15625 503.691406 C 487.558594 512.871094 484.929688 518.132812 484.929688 521.234375 C 484.929688 522.074219 485.199219 522.765625 485.691406 523.324219 C 486.492188 524.226562 487.847656 525.0625 489.667969 525.84375 C 491.953125 526.824219 494.789062 527.632812 498.238281 528.074219 C 501.335938 528.476562 505.015625 528.582031 509.308594 528.28125 C 514.398438 527.917969 520.289062 526.953125 526.300781 525.082031 C 531.226562 523.53125 536.269531 521.359375 541.015625 518.398438 C 546.296875 515.101562 551.253906 510.796875 555.617188 505.757812 C 559.976562 500.722656 563.785156 494.925781 566.761719 488.640625 C 569.722656 482.378906 571.878906 475.613281 573.226562 468.675781 C 574.609375 461.535156 575.128906 454.21875 574.792969 447.097656 C 574.464844 440.097656 573.285156 433.242188 571.363281 426.804688 C 569.457031 420.402344 566.804688 414.421875 563.492188 409.132812 C 560.1875 403.839844 556.199219 399.1875 551.976562 395.121094 C 547.667969 390.980469 543.089844 387.425781 538.695312 384.382812 C 534.359375 381.386719 530.175781 378.871094 525.933594 376.957031 C 521.84375 375.113281 517.667969 373.828125 513.210938 373.191406 C 508.636719 372.535156 503.664062 372.542969 498.746094 372.871094 C 493.753906 373.210938 488.71875 373.914062 484.195312 374.601562 C 475.242188 375.980469 468.253906 377.375 461.296875 378.761719 L 459.164062 379.199219 C 460.324219 380.582031 461.542969 382.203125 462.644531 384.410156 C 462.957031 385.039062 463.257812 385.699219 463.539062 386.398438 Z M 407.789062 454.925781 C 411.304688 458.152344 414.890625 460.953125 418.652344 462.636719 C 421.410156 463.851562 424.335938 464.511719 427.265625 464.714844 C 430.625 464.957031 434.007812 464.617188 437.175781 463.917969 C 439.824219 463.332031 442.347656 462.480469 444.625 461.546875 C 447.59375 460.339844 450.1875 458.953125 452.125 457.792969 L 452.351562 457.660156 C 453.007812 456.113281 453.613281 454.554688 454.152344 453.003906 C 456.273438 446.949219 457.421875 440.832031 457.992188 434.890625 C 456.070312 436.488281 454.023438 438.027344 451.738281 439.445312 C 448.613281 441.390625 445.046875 443.15625 441.386719 444.378906 C 438.082031 445.476562 434.699219 446.148438 431.496094 446.148438 C 424.636719 446.148438 418.746094 443.207031 412.859375 440.265625 L 403.425781 435.546875 C 403.535156 436.488281 403.65625 437.4375 403.792969 438.398438 C 404.582031 443.8125 405.882812 449.417969 407.789062 454.925781 Z M 449.28125 464.113281 C 448.328125 464.570312 447.296875 465.027344 446.230469 465.464844 C 443.742188 466.480469 440.972656 467.414062 438.089844 468.054688 C 434.523438 468.84375 430.734375 469.222656 426.96875 468.949219 C 423.570312 468.710938 420.175781 467.941406 416.945312 466.511719 C 414.921875 465.609375 412.980469 464.460938 411.097656 463.128906 C 412.671875 466.542969 414.410156 469.828125 416.1875 472.855469 C 419.761719 478.949219 423.542969 484.121094 426.503906 487.445312 C 428.269531 489.425781 429.316406 490.453125 429.738281 490.472656 C 430.34375 490.449219 431.660156 489.203125 433.90625 486.710938 C 437.308594 482.933594 441.789062 477.015625 445.886719 470.183594 C 447.066406 468.222656 448.199219 466.191406 449.28125 464.113281 Z M 402.988281 430.589844 L 414.734375 436.457031 C 420.183594 439.167969 425.628906 441.890625 431.496094 441.890625 C 434.261719 441.890625 437.179688 441.3125 440.039062 440.359375 C 443.351562 439.253906 446.613281 437.636719 449.503906 435.839844 C 452.226562 434.140625 454.617188 432.257812 456.832031 430.300781 L 458.378906 428.898438 C 458.511719 425.21875 458.457031 421.640625 458.316406 418.21875 C 456.078125 419.550781 453.734375 420.808594 451.210938 421.886719 C 446.066406 424.085938 440.195312 425.570312 433.613281 426.296875 C 430.300781 426.660156 426.796875 426.851562 423.296875 426.574219 C 419.746094 426.292969 416.132812 425.523438 412.691406 423.996094 C 409.289062 422.496094 406.136719 420.273438 403.097656 417.699219 L 402.964844 419.53125 C 402.753906 422.976562 402.742188 426.695312 402.988281 430.589844 Z M 403.707031 412.582031 C 407.175781 415.742188 410.703125 418.488281 414.410156 420.132812 C 417.328125 421.433594 420.476562 422.09375 423.632812 422.339844 C 426.851562 422.589844 430.089844 422.417969 433.15625 422.082031 C 439.3125 421.402344 444.789062 420.027344 449.550781 417.984375 C 452.578125 416.691406 455.363281 415.09375 458.058594 413.394531 C 457.722656 407.996094 457.222656 403.09375 456.507812 398.890625 L 456.171875 397.050781 C 454.816406 397.703125 453.46875 398.328125 452.140625 398.9375 C 447.988281 400.828125 443.988281 402.46875 440.359375 403.558594 C 436.617188 404.675781 433.222656 405.246094 430.011719 405.246094 C 426.773438 405.246094 423.691406 404.664062 420.605469 403.507812 C 416.300781 401.894531 412.066406 399.171875 407.859375 396.136719 C 406.394531 400.582031 404.71875 406.003906 403.707031 412.582031 Z M 409.253906 391.917969 C 413.574219 395.085938 417.875 397.964844 422.089844 399.542969 C 424.660156 400.5 427.253906 400.984375 430.011719 400.984375 C 432.832031 400.984375 435.828125 400.488281 439.144531 399.488281 C 442.59375 398.457031 446.410156 396.894531 450.386719 395.078125 C 451.960938 394.359375 453.566406 393.605469 455.183594 392.828125 C 454.738281 391.292969 454.246094 389.964844 453.699219 388.878906 C 452.808594 387.09375 451.589844 385.710938 450.519531 384.5 C 449.605469 383.472656 448.753906 382.515625 448.042969 381.464844 L 439.726562 383.160156 L 439.273438 383.25 L 438.820312 383.34375 L 438.371094 383.433594 L 437.914062 383.527344 L 436.046875 383.910156 L 436.136719 383.851562 C 433.171875 384.359375 430.3125 384.691406 427.589844 384.75 C 423.007812 384.859375 419 384.222656 415.316406 383.230469 C 414.109375 382.90625 412.925781 382.535156 411.761719 382.136719 C 411.273438 385.441406 410.394531 388.433594 409.253906 391.917969 Z M 351.570312 262.21875 L 355.941406 255.785156 C 357.464844 253.644531 359.089844 251.46875 360.910156 249.28125 C 362.769531 247.054688 364.816406 244.820312 367.15625 242.957031 C 369.601562 241.015625 372.347656 239.449219 375.480469 238.667969 C 378.578125 237.890625 382.050781 237.878906 385.570312 238.527344 C 389.109375 239.183594 392.742188 240.511719 396.164062 242.410156 C 399.425781 244.222656 402.511719 246.5625 405.230469 249.15625 C 408.105469 251.910156 410.605469 254.96875 412.511719 258.019531 C 415.40625 262.652344 416.933594 267.210938 418.160156 271.765625 C 421.410156 269.378906 425.238281 268.011719 429.351562 268.011719 C 433.042969 268.011719 436.496094 269.109375 439.511719 271.058594 C 440.703125 266.75 442.226562 262.410156 444.972656 258.019531 C 446.878906 254.96875 449.378906 251.910156 452.253906 249.15625 C 454.976562 246.5625 458.058594 244.222656 461.328125 242.410156 C 464.742188 240.511719 468.375 239.183594 471.914062 238.527344 C 475.433594 237.878906 478.910156 237.890625 482.003906 238.667969 C 485.140625 239.449219 487.882812 241.015625 490.328125 242.957031 C 492.667969 244.820312 494.714844 247.054688 496.574219 249.28125 C 498.394531 251.46875 500.027344 253.644531 501.542969 255.785156 L 505.921875 262.21875 L 502.382812 264.554688 C 500.988281 262.464844 499.589844 260.355469 498.085938 258.242188 C 496.601562 256.144531 495.023438 254.042969 493.316406 251.992188 C 491.632812 249.96875 489.769531 247.941406 487.691406 246.273438 C 485.710938 244.6875 483.480469 243.40625 480.96875 242.78125 C 478.46875 242.152344 475.609375 242.152344 472.675781 242.699219 C 469.59375 243.261719 466.40625 244.441406 463.382812 246.117188 C 460.445312 247.746094 457.65625 249.867188 455.175781 252.226562 C 452.5625 254.726562 450.304688 257.496094 448.578125 260.253906 C 445.761719 264.765625 444.324219 269.378906 443.128906 273.996094 C 443.777344 274.648438 444.390625 275.339844 444.96875 276.078125 C 448.625 280.71875 450.886719 287.070312 450.886719 294.007812 C 450.886719 300.953125 448.625 307.304688 444.96875 311.949219 C 444.617188 312.394531 444.257812 312.820312 443.878906 313.234375 C 446.15625 315.042969 448.261719 317.386719 450.210938 320.289062 C 453.011719 324.457031 455.566406 329.90625 457.355469 335.644531 C 458.023438 337.808594 458.589844 340.015625 459.03125 342.230469 C 462.621094 334.9375 466.621094 327.722656 471.566406 320.714844 C 475.96875 314.472656 481.132812 308.398438 486.464844 303.0625 C 491.8125 297.699219 497.417969 293.027344 502.707031 289.632812 C 508.132812 286.144531 513.222656 284 518.035156 282.714844 C 522.882812 281.433594 527.371094 281.035156 531.617188 281.035156 C 535.8125 281.035156 539.855469 281.425781 543.820312 282.195312 C 547.769531 282.972656 551.621094 284.125 555.449219 285.664062 C 559.351562 287.226562 563.289062 289.207031 566.90625 291.480469 C 570.402344 293.671875 573.617188 296.160156 576.261719 298.796875 C 579.070312 301.609375 581.324219 304.691406 583.078125 308.117188 C 584.820312 311.46875 586.042969 315.089844 586.835938 319.074219 C 587.664062 323.214844 588.046875 327.839844 587.761719 332.339844 C 587.496094 336.449219 586.660156 340.496094 585.09375 344.035156 C 583.390625 347.824219 580.921875 350.984375 577.960938 353.519531 C 574.832031 356.207031 571.125 358.207031 567.210938 359.511719 C 563.539062 360.722656 559.730469 361.34375 555.589844 361.535156 C 551.589844 361.726562 547.332031 361.546875 542.582031 361.179688 L 534.203125 360.4375 C 527.167969 359.78125 519.566406 359.078125 512.5 359.078125 C 507.753906 359.078125 503.429688 359.410156 499.382812 360.128906 C 495.359375 360.851562 491.449219 362.003906 487.5 363.648438 L 486.335938 364.144531 C 490.035156 363.621094 494.007812 363.144531 498.085938 362.875 C 503.613281 362.496094 509.273438 362.503906 514.621094 363.273438 C 520.070312 364.046875 525.125 365.609375 530.050781 367.820312 C 534.839844 369.976562 539.527344 372.789062 544.378906 376.152344 C 549.191406 379.480469 554.203125 383.375 558.910156 387.90625 C 563.707031 392.519531 568.238281 397.808594 572.007812 403.839844 C 575.785156 409.882812 578.808594 416.691406 580.96875 423.9375 C 583.109375 431.105469 584.417969 438.765625 584.792969 446.625 C 585.164062 454.554688 584.59375 462.679688 583.066406 470.566406 C 581.566406 478.3125 579.144531 485.886719 575.816406 492.917969 C 572.449219 500.019531 568.148438 506.585938 563.1875 512.304688 C 558.144531 518.121094 552.414062 523.097656 546.308594 526.914062 C 540.800781 530.355469 534.972656 532.859375 529.28125 534.644531 C 522.449219 536.777344 515.773438 537.871094 510.011719 538.28125 C 505.109375 538.628906 500.773438 538.480469 496.980469 537.992188 C 492.476562 537.414062 488.761719 536.34375 485.746094 535.058594 C 482.601562 533.714844 480.054688 532.050781 478.207031 529.953125 C 476.042969 527.507812 474.890625 524.640625 474.890625 521.234375 C 474.890625 515.851562 477.917969 509.800781 483.210938 499.226562 L 483.234375 499.171875 C 488.09375 489.453125 495.003906 475.609375 498.421875 461.933594 C 500.085938 455.269531 500.921875 448.59375 500.921875 442.25 C 500.921875 436.007812 500.117188 430.132812 498.5 424.976562 C 496.980469 420.105469 494.734375 415.8125 492.054688 412.207031 C 489.164062 408.328125 485.757812 405.199219 482.183594 402.925781 C 477.328125 399.820312 471.933594 398.234375 466.367188 397.105469 L 466.394531 397.242188 C 467.214844 402.109375 467.769531 407.78125 468.128906 413.976562 C 468.503906 420.195312 468.683594 426.988281 468.128906 434.035156 C 467.578125 441.230469 466.25 448.746094 463.605469 456.296875 C 461.304688 462.882812 458 469.4375 454.472656 475.324219 C 449.980469 482.804688 445.082031 489.277344 441.355469 493.421875 C 437.234375 498 433.9375 500.320312 430.128906 500.46875 C 426.101562 500.621094 422.882812 498.457031 419.011719 494.109375 C 415.726562 490.417969 411.539062 484.679688 407.566406 477.921875 C 404.320312 472.398438 401.226562 466.207031 398.914062 459.921875 C 396.46875 453.261719 394.839844 446.425781 393.875 439.8125 C 392.796875 432.398438 392.570312 425.242188 392.960938 418.921875 C 393.507812 410.203125 395.238281 403.105469 396.984375 397.328125 C 391.800781 398.445312 386.777344 400.007812 382.230469 402.910156 C 378.65625 405.199219 375.242188 408.332031 372.359375 412.210938 C 369.679688 415.8125 367.429688 420.105469 365.910156 424.976562 C 364.300781 430.132812 363.488281 436 363.488281 442.25 C 363.488281 448.601562 364.332031 455.277344 365.984375 461.933594 C 369.40625 475.609375 376.324219 489.453125 381.160156 499.136719 L 381.207031 499.226562 C 386.496094 509.800781 389.523438 515.851562 389.523438 521.234375 C 389.523438 524.640625 388.371094 527.507812 386.214844 529.953125 C 384.355469 532.050781 381.808594 533.714844 378.671875 535.058594 C 375.65625 536.34375 371.9375 537.414062 367.429688 537.992188 C 363.640625 538.480469 359.300781 538.628906 354.398438 538.28125 C 348.636719 537.871094 341.960938 536.777344 335.128906 534.644531 C 329.441406 532.859375 323.613281 530.355469 318.101562 526.914062 C 312 523.097656 306.265625 518.121094 301.226562 512.304688 C 296.261719 506.585938 291.960938 500.019531 288.597656 492.917969 C 285.269531 485.886719 282.847656 478.3125 281.34375 470.566406 C 279.820312 462.679688 279.246094 454.554688 279.621094 446.625 C 280 438.765625 281.300781 431.105469 283.441406 423.9375 C 285.605469 416.691406 288.625 409.882812 292.40625 403.839844 C 296.171875 397.808594 300.703125 392.515625 305.503906 387.90625 C 310.214844 383.375 315.226562 379.480469 320.03125 376.152344 C 324.886719 372.789062 329.574219 369.976562 334.363281 367.820312 C 339.289062 365.609375 344.347656 364.046875 349.789062 363.273438 C 355.136719 362.503906 360.804688 362.496094 366.324219 362.875 C 370.40625 363.144531 374.375 363.621094 378.078125 364.144531 L 376.914062 363.648438 C 372.964844 362.003906 369.054688 360.851562 365.027344 360.128906 C 360.988281 359.410156 356.660156 359.078125 351.910156 359.078125 C 344.847656 359.078125 337.246094 359.78125 330.210938 360.4375 L 321.828125 361.179688 C 317.082031 361.546875 312.835938 361.726562 308.828125 361.535156 C 304.6875 361.34375 300.878906 360.722656 297.210938 359.511719 C 293.296875 358.207031 289.582031 356.207031 286.453125 353.519531 C 283.488281 350.984375 281.019531 347.824219 279.34375 344.058594 C 277.75 340.496094 276.917969 336.449219 276.652344 332.339844 C 276.371094 327.839844 276.75 323.214844 277.578125 319.074219 C 278.371094 315.089844 279.589844 311.46875 281.320312 308.109375 C 283.058594 304.746094 285.308594 301.667969 288.152344 298.820312 C 290.800781 296.152344 294.011719 293.671875 297.507812 291.480469 C 301.125 289.207031 305.058594 287.226562 308.964844 285.664062 C 312.792969 284.125 316.644531 282.972656 320.589844 282.203125 C 324.554688 281.425781 328.601562 281.035156 332.792969 281.035156 C 337.042969 281.035156 341.535156 281.433594 346.378906 282.714844 C 351.183594 284 356.285156 286.144531 361.707031 289.632812 C 366.992188 293.027344 372.605469 297.699219 377.957031 303.050781 C 383.28125 308.398438 388.449219 314.480469 392.847656 320.714844 C 395.722656 324.789062 398.277344 328.929688 400.621094 333.121094 C 401.324219 329.558594 402.484375 326.171875 404.292969 323.15625 C 406.742188 319.082031 410.300781 315.78125 414.257812 313.386719 L 414.714844 313.109375 C 414.378906 312.734375 414.050781 312.351562 413.738281 311.949219 C 410.082031 307.304688 407.820312 300.953125 407.820312 294.007812 C 407.820312 287.070312 410.082031 280.71875 413.738281 276.078125 L 414.625 275.023438 C 413.371094 270.058594 411.941406 265.101562 408.90625 260.253906 C 407.183594 257.496094 404.921875 254.726562 402.308594 252.226562 C 399.828125 249.867188 397.039062 247.746094 394.101562 246.117188 C 391.078125 244.441406 387.890625 243.261719 384.8125 242.699219 C 381.875 242.152344 379.015625 242.152344 376.515625 242.78125 C 374.003906 243.40625 371.773438 244.6875 369.792969 246.273438 C 367.714844 247.941406 365.851562 249.96875 364.167969 251.992188 C 362.460938 254.042969 360.882812 256.144531 359.398438 258.242188 C 357.894531 260.355469 356.496094 262.464844 355.101562 264.554688 Z M 434.507812 319.273438 C 432.859375 319.761719 431.136719 320.011719 429.351562 320.011719 C 427.839844 320.011719 426.367188 319.824219 424.941406 319.476562 C 423.085938 320.035156 421.203125 320.867188 419.445312 321.933594 C 416.792969 323.546875 414.441406 325.695312 412.878906 328.296875 C 411.183594 331.128906 410.3125 334.691406 409.933594 338.523438 C 408.90625 349.0625 411.296875 360.96875 412.023438 371.585938 C 413.921875 372.3125 415.863281 372.992188 417.90625 373.546875 C 420.828125 374.332031 423.933594 374.832031 427.355469 374.753906 C 432.746094 374.628906 439.390625 373.09375 446.367188 371.203125 C 447.582031 364.546875 450.015625 359.121094 450.015625 351.964844 C 450.015625 347.703125 449.15625 343.046875 447.792969 338.632812 C 446.277344 333.769531 444.167969 329.242188 441.898438 325.863281 C 439.9375 322.945312 437.894531 320.957031 435.734375 319.820312 C 435.335938 319.609375 434.929688 319.429688 434.507812 319.273438 Z M 437.089844 282.273438 C 435.042969 279.671875 432.296875 278.050781 429.351562 278.050781 C 426.414062 278.050781 423.664062 279.671875 421.621094 282.273438 C 419.292969 285.21875 417.859375 289.371094 417.859375 294.007812 C 417.859375 298.648438 419.300781 302.804688 421.621094 305.753906 C 422.742188 307.179688 424.082031 308.3125 425.542969 309.046875 C 426.347656 308.898438 427.148438 308.777344 427.933594 308.703125 C 429.910156 308.507812 431.808594 308.523438 433.648438 308.78125 C 434.921875 308.054688 436.085938 307.023438 437.089844 305.753906 C 439.410156 302.804688 440.847656 298.648438 440.847656 294.007812 C 440.847656 289.371094 439.410156 285.21875 437.089844 282.273438 Z M 456.941406 369.972656 L 457.289062 369.738281 C 461.675781 366.8125 466.070312 363.878906 470.238281 361.367188 C 474.667969 358.6875 479.140625 356.273438 483.65625 354.390625 C 488.203125 352.5 492.800781 351.160156 497.617188 350.289062 C 502.4375 349.429688 507.328125 349.039062 512.5 349.039062 C 519.597656 349.039062 527.652344 349.789062 535.101562 350.472656 L 543.328125 351.183594 C 547.785156 351.519531 551.691406 351.699219 555.117188 351.539062 C 558.402344 351.386719 561.339844 350.925781 564.039062 350.03125 C 566.761719 349.117188 569.320312 347.742188 571.453125 345.914062 C 573.328125 344.308594 574.882812 342.328125 575.921875 340 C 576.988281 337.574219 577.574219 334.691406 577.761719 331.703125 C 577.992188 328.136719 577.671875 324.402344 577 321.035156 C 576.378906 317.933594 575.460938 315.175781 574.1875 312.699219 C 572.949219 310.273438 571.292969 308.027344 569.160156 305.898438 C 567.007812 303.742188 564.394531 301.730469 561.574219 299.957031 C 558.488281 298.011719 555.105469 296.316406 551.722656 294.957031 C 548.484375 293.660156 545.226562 292.679688 541.921875 292.039062 C 538.628906 291.402344 535.21875 291.078125 531.617188 291.078125 C 528.085938 291.078125 524.410156 291.394531 520.585938 292.402344 C 516.730469 293.425781 512.601562 295.1875 508.113281 298.0625 C 503.492188 301.039062 498.460938 305.242188 493.554688 310.152344 C 488.613281 315.066406 483.847656 320.683594 479.761719 326.476562 C 475.351562 332.714844 459.476562 360.472656 457.339844 368.488281 Z M 384.65625 326.476562 C 380.570312 320.683594 375.800781 315.066406 370.878906 310.152344 C 365.953125 305.242188 360.917969 301.039062 356.296875 298.0625 C 351.816406 295.1875 347.683594 293.425781 343.824219 292.402344 C 340.003906 291.390625 336.328125 291.078125 332.792969 291.078125 C 329.199219 291.078125 325.78125 291.402344 322.507812 292.039062 C 319.183594 292.679688 315.933594 293.660156 312.691406 294.957031 C 309.308594 296.316406 305.925781 298.011719 302.835938 299.957031 C 300.019531 301.730469 297.40625 303.742188 295.253906 305.898438 C 293.152344 307.988281 291.492188 310.242188 290.226562 312.699219 C 288.949219 315.175781 288.03125 317.933594 287.417969 321.035156 C 286.746094 324.402344 286.421875 328.136719 286.648438 331.703125 C 286.835938 334.691406 287.425781 337.574219 288.5 340 C 289.527344 342.328125 291.085938 344.308594 292.957031 345.914062 C 295.089844 347.742188 297.652344 349.117188 300.371094 350.023438 C 303.078125 350.925781 306.007812 351.386719 309.300781 351.539062 C 312.71875 351.699219 316.625 351.519531 321.082031 351.183594 L 329.308594 350.472656 C 336.757812 349.789062 344.816406 349.039062 351.910156 349.039062 C 357.085938 349.039062 361.980469 349.429688 366.792969 350.289062 C 371.613281 351.160156 376.214844 352.5 380.757812 354.390625 C 385.277344 356.273438 389.746094 358.6875 394.179688 361.367188 C 396.535156 362.792969 398.972656 364.347656 401.433594 365.964844 L 401.121094 363.117188 C 399.640625 349.488281 392.539062 337.652344 384.65625 326.476562 Z M 402.054688 378.542969 C 395.449219 377.234375 388.71875 375.90625 380.214844 374.601562 C 375.691406 373.914062 370.65625 373.210938 365.664062 372.871094 C 360.753906 372.542969 355.769531 372.535156 351.207031 373.191406 C 346.75 373.820312 342.570312 375.113281 338.476562 376.957031 C 334.234375 378.871094 330.054688 381.386719 325.714844 384.382812 C 321.324219 387.425781 316.75 390.988281 312.445312 395.121094 C 308.207031 399.1875 304.230469 403.84375 300.917969 409.132812 C 297.609375 414.421875 294.953125 420.402344 293.046875 426.804688 C 291.125 433.242188 289.949219 440.097656 289.617188 447.097656 C 289.28125 454.21875 289.804688 461.535156 291.1875 468.675781 C 292.53125 475.613281 294.6875 482.378906 297.652344 488.640625 C 300.625 494.925781 304.433594 500.722656 308.796875 505.757812 C 313.160156 510.796875 318.121094 515.101562 323.394531 518.398438 C 328.144531 521.359375 333.183594 523.53125 338.109375 525.082031 C 344.125 526.953125 350.011719 527.917969 355.101562 528.28125 C 359.398438 528.582031 363.074219 528.476562 366.175781 528.074219 C 369.625 527.632812 372.460938 526.824219 374.742188 525.84375 C 376.558594 525.066406 377.914062 524.234375 378.71875 523.324219 C 379.214844 522.765625 379.484375 522.074219 379.484375 521.234375 C 379.484375 518.132812 376.851562 512.871094 372.261719 503.691406 L 372.230469 503.644531 C 367.148438 493.464844 359.914062 478.980469 356.261719 464.367188 C 354.394531 456.851562 353.449219 449.359375 353.449219 442.25 C 353.449219 435.039062 354.417969 428.148438 356.339844 421.992188 C 358.207031 416.011719 360.996094 410.71875 364.320312 406.242188 C 367.984375 401.316406 372.320312 397.332031 376.859375 394.449219 C 384.546875 389.574219 392.507812 387.839844 400.488281 386.464844 C 401.292969 383.773438 401.851562 381.320312 402.054688 378.542969 Z M 402.054688 378.542969 " fill-opacity="1" fill-rule="nonzero"/></g><g fill="#ffcc69" fill-opacity="1"><g transform="translate(198.657826, 797.268505)"><g><path d="M 14.78125 -8.140625 C 14.78125 -4.972656 13.679688 -2.644531 11.484375 -1.15625 C 9.734375 0 7.550781 0.546875 4.9375 0.484375 C 3.84375 0.453125 2.875 0.304688 2.03125 0.046875 C 1.164062 -0.179688 0.570312 -0.421875 0.25 -0.671875 L 0.25 -4.40625 C 1.144531 -3.632812 2.484375 -3.148438 4.265625 -2.953125 C 6.140625 -2.722656 7.738281 -2.984375 9.0625 -3.734375 C 10.613281 -4.597656 11.390625 -6.066406 11.390625 -8.140625 L 11.390625 -32.9375 L 14.78125 -32.9375 Z M 14.78125 -8.140625 "/></g></g></g><g fill="#ffcc69" fill-opacity="1"><g transform="translate(224.232464, 797.268505)"><g><path d="M 20.59375 -10.65625 C 20.59375 -12.71875 19.878906 -14.523438 18.453125 -16.078125 C 17.003906 -17.628906 15.210938 -18.40625 13.078125 -18.40625 C 10.941406 -18.40625 9.164062 -17.628906 7.75 -16.078125 C 6.300781 -14.523438 5.578125 -12.71875 5.578125 -10.65625 C 5.578125 -8.59375 6.300781 -6.785156 7.75 -5.234375 C 9.164062 -3.679688 10.941406 -2.90625 13.078125 -2.90625 C 15.210938 -2.90625 17.003906 -3.679688 18.453125 -5.234375 C 19.878906 -6.785156 20.59375 -8.59375 20.59375 -10.65625 Z M 23.984375 0 L 20.59375 0 L 20.59375 -3.640625 C 20.394531 -3.378906 20.195312 -3.132812 20 -2.90625 C 17.96875 -0.644531 15.484375 0.484375 12.546875 0.484375 C 9.609375 0.484375 7.140625 -0.644531 5.140625 -2.90625 C 3.171875 -5.101562 2.1875 -7.6875 2.1875 -10.65625 C 2.1875 -13.625 3.171875 -16.207031 5.140625 -18.40625 C 7.140625 -20.664062 9.609375 -21.796875 12.546875 -21.796875 C 15.484375 -21.796875 17.96875 -20.664062 20 -18.40625 C 20.195312 -18.175781 20.394531 -17.9375 20.59375 -17.6875 L 20.59375 -21.3125 L 23.984375 -21.3125 Z M 23.984375 0 "/></g></g></g><g fill="#ffcc69" fill-opacity="1"><g transform="translate(259.736378, 797.268505)"><g><path d="M 14.578125 -16.90625 C 13.804688 -17.613281 12.96875 -17.96875 12.0625 -17.96875 C 11.1875 -17.96875 10.441406 -17.726562 9.828125 -17.25 C 9.179688 -16.726562 8.648438 -16.113281 8.234375 -15.40625 C 7.429688 -13.976562 7.03125 -12.394531 7.03125 -10.65625 L 7.03125 0 L 3.640625 0 L 3.640625 -21.3125 L 7.03125 -21.3125 L 7.03125 -16.90625 L 7.171875 -17.78125 C 8.296875 -20.425781 10.054688 -21.75 12.453125 -21.75 C 13.191406 -21.75 13.898438 -21.601562 14.578125 -21.3125 Z M 14.578125 -16.90625 "/></g></g></g><g fill="#ffcc69" fill-opacity="1"><g transform="translate(282.695506, 797.268505)"><g><path d="M 20.59375 -10.65625 C 20.59375 -12.71875 19.878906 -14.523438 18.453125 -16.078125 C 17.003906 -17.628906 15.210938 -18.40625 13.078125 -18.40625 C 10.941406 -18.40625 9.164062 -17.628906 7.75 -16.078125 C 6.300781 -14.523438 5.578125 -12.71875 5.578125 -10.65625 C 5.578125 -8.59375 6.300781 -6.785156 7.75 -5.234375 C 9.164062 -3.679688 10.941406 -2.90625 13.078125 -2.90625 C 15.210938 -2.90625 17.003906 -3.679688 18.453125 -5.234375 C 19.878906 -6.785156 20.59375 -8.59375 20.59375 -10.65625 Z M 23.984375 0 L 20.59375 0 L 20.59375 -3.640625 C 20.394531 -3.378906 20.195312 -3.132812 20 -2.90625 C 17.96875 -0.644531 15.484375 0.484375 12.546875 0.484375 C 9.609375 0.484375 7.140625 -0.644531 5.140625 -2.90625 C 3.171875 -5.101562 2.1875 -7.6875 2.1875 -10.65625 C 2.1875 -13.625 3.171875 -16.207031 5.140625 -18.40625 C 7.140625 -20.664062 9.609375 -21.796875 12.546875 -21.796875 C 15.484375 -21.796875 17.96875 -20.664062 20 -18.40625 C 20.195312 -18.175781 20.394531 -17.9375 20.59375 -17.6875 L 20.59375 -36.328125 L 23.984375 -36.328125 Z M 23.984375 0 "/></g></g></g><g fill="#ffcc69" fill-opacity="1"><g transform="translate(318.199416, 797.268505)"><g><path d="M 7.078125 -28.671875 C 7.492188 -28.253906 7.703125 -27.753906 7.703125 -27.171875 C 7.703125 -26.554688 7.492188 -26.039062 7.078125 -25.625 C 6.648438 -25.207031 6.148438 -25 5.578125 -25 C 4.960938 -25 4.441406 -25.207031 4.015625 -25.625 C 3.597656 -26.039062 3.390625 -26.554688 3.390625 -27.171875 C 3.390625 -27.753906 3.597656 -28.253906 4.015625 -28.671875 C 4.441406 -29.097656 4.960938 -29.3125 5.578125 -29.3125 C 6.148438 -29.3125 6.648438 -29.097656 7.078125 -28.671875 Z M 7.265625 0 L 3.875 0 L 3.875 -21.3125 L 7.265625 -21.3125 Z M 7.265625 0 "/></g></g></g><g fill="#ffcc69" fill-opacity="1"><g transform="translate(337.186836, 797.268505)"><g><path d="M 30.65625 -0.09375 L 30.65625 -13.421875 C 30.65625 -15.617188 29.960938 -17.164062 28.578125 -18.0625 C 28.097656 -18.351562 27.351562 -18.5 26.34375 -18.5 C 25.34375 -18.5 24.410156 -18.207031 23.546875 -17.625 C 22.671875 -17.050781 21.972656 -16.3125 21.453125 -15.40625 C 21.265625 -15.050781 21.085938 -14.660156 20.921875 -14.234375 C 20.921875 -13.984375 20.921875 -13.710938 20.921875 -13.421875 L 20.921875 -0.09375 L 17.53125 -0.09375 L 17.53125 -13.421875 C 17.53125 -15.617188 16.835938 -17.164062 15.453125 -18.0625 C 14.960938 -18.351562 14.21875 -18.5 13.21875 -18.5 C 12.21875 -18.5 11.285156 -18.207031 10.421875 -17.625 C 9.546875 -17.050781 8.847656 -16.3125 8.328125 -15.40625 C 7.648438 -14.207031 7.21875 -12.738281 7.03125 -11 L 7.03125 -0.09375 L 3.640625 -0.09375 L 3.640625 -21.40625 L 7.03125 -21.40625 L 7.03125 -18.015625 C 7.675781 -19.117188 8.484375 -20.007812 9.453125 -20.6875 C 10.546875 -21.488281 11.835938 -21.890625 13.328125 -21.890625 C 14.804688 -21.890625 16 -21.664062 16.90625 -21.21875 C 17.8125 -20.726562 18.570312 -20.097656 19.1875 -19.328125 C 19.507812 -18.878906 19.796875 -18.378906 20.046875 -17.828125 C 20.691406 -18.984375 21.535156 -19.9375 22.578125 -20.6875 C 23.671875 -21.488281 24.960938 -21.890625 26.453125 -21.890625 C 27.929688 -21.890625 29.125 -21.664062 30.03125 -21.21875 C 30.9375 -20.726562 31.695312 -20.097656 32.3125 -19.328125 C 33.46875 -17.804688 34.046875 -15.835938 34.046875 -13.421875 L 34.046875 -0.09375 Z M 30.65625 -0.09375 "/></g></g></g><g fill="#ffcc69" fill-opacity="1"><g transform="translate(382.038809, 797.268505)"><g/></g></g><g fill="#ffcc69" fill-opacity="1"><g transform="translate(403.012071, 797.268505)"><g><path d="M 25.140625 -9.203125 C 25.140625 -7.847656 24.832031 -6.554688 24.21875 -5.328125 C 23.601562 -4.097656 22.78125 -3.097656 21.75 -2.328125 C 19.75 -0.773438 17.066406 0 13.703125 0 L 3.640625 0 L 3.640625 -32.9375 L 12.546875 -32.9375 C 17.359375 -32.9375 20.488281 -31.453125 21.9375 -28.484375 C 22.457031 -27.421875 22.71875 -26.335938 22.71875 -25.234375 C 22.71875 -24.140625 22.632812 -23.285156 22.46875 -22.671875 C 22.28125 -22.023438 22.023438 -21.410156 21.703125 -20.828125 C 20.960938 -19.566406 20.007812 -18.679688 18.84375 -18.171875 C 20.78125 -17.648438 22.3125 -16.613281 23.4375 -15.0625 C 24.570312 -13.476562 25.140625 -11.523438 25.140625 -9.203125 Z M 19.328125 -24.703125 C 19.328125 -28.023438 17.066406 -29.6875 12.546875 -29.6875 L 7.03125 -29.6875 L 7.03125 -19.421875 L 13.515625 -19.421875 C 15.253906 -19.421875 16.660156 -19.859375 17.734375 -20.734375 C 18.796875 -21.609375 19.328125 -22.929688 19.328125 -24.703125 Z M 21.75 -9.828125 C 21.75 -10.796875 21.570312 -11.65625 21.21875 -12.40625 C 20.832031 -13.144531 20.347656 -13.789062 19.765625 -14.34375 C 18.472656 -15.46875 16.953125 -16.03125 15.203125 -16.03125 L 7.03125 -16.03125 L 7.03125 -3.25 L 14.671875 -3.25 C 16.742188 -3.25 18.441406 -3.84375 19.765625 -5.03125 C 21.085938 -6.257812 21.75 -7.859375 21.75 -9.828125 Z M 21.75 -9.828125 "/></g></g></g><g fill="#ffcc69" fill-opacity="1"><g transform="translate(437.014489, 797.268505)"><g><path d="M 14.578125 -16.90625 C 13.804688 -17.613281 12.96875 -17.96875 12.0625 -17.96875 C 11.1875 -17.96875 10.441406 -17.726562 9.828125 -17.25 C 9.179688 -16.726562 8.648438 -16.113281 8.234375 -15.40625 C 7.429688 -13.976562 7.03125 -12.394531 7.03125 -10.65625 L 7.03125 0 L 3.640625 0 L 3.640625 -21.3125 L 7.03125 -21.3125 L 7.03125 -16.90625 L 7.171875 -17.78125 C 8.296875 -20.425781 10.054688 -21.75 12.453125 -21.75 C 13.191406 -21.75 13.898438 -21.601562 14.578125 -21.3125 Z M 14.578125 -16.90625 "/></g></g></g><g fill="#ffcc69" fill-opacity="1"><g transform="translate(459.97361, 797.268505)"><g><path d="M 7.078125 -28.671875 C 7.492188 -28.253906 7.703125 -27.753906 7.703125 -27.171875 C 7.703125 -26.554688 7.492188 -26.039062 7.078125 -25.625 C 6.648438 -25.207031 6.148438 -25 5.578125 -25 C 4.960938 -25 4.441406 -25.207031 4.015625 -25.625 C 3.597656 -26.039062 3.390625 -26.554688 3.390625 -27.171875 C 3.390625 -27.753906 3.597656 -28.253906 4.015625 -28.671875 C 4.441406 -29.097656 4.960938 -29.3125 5.578125 -29.3125 C 6.148438 -29.3125 6.648438 -29.097656 7.078125 -28.671875 Z M 7.265625 0 L 3.875 0 L 3.875 -21.3125 L 7.265625 -21.3125 Z M 7.265625 0 "/></g></g></g><g fill="#ffcc69" fill-opacity="1"><g transform="translate(478.96103, 797.268505)"><g><path d="M 18.359375 0 L 18.359375 -13.328125 C 18.359375 -14.710938 18.050781 -15.90625 17.4375 -16.90625 C 16.789062 -17.875 15.742188 -18.359375 14.296875 -18.359375 C 12.835938 -18.359375 11.65625 -18.082031 10.75 -17.53125 C 9.84375 -16.988281 9.117188 -16.28125 8.578125 -15.40625 C 7.546875 -13.789062 7.03125 -11.625 7.03125 -8.90625 L 7.03125 0 L 3.640625 0 L 3.640625 -21.3125 L 7.03125 -21.3125 L 7.03125 -17.625 C 7.738281 -18.820312 8.640625 -19.8125 9.734375 -20.59375 C 10.898438 -21.363281 12.238281 -21.75 13.75 -21.75 C 15.269531 -21.75 16.5 -21.539062 17.4375 -21.125 C 18.375 -20.664062 19.164062 -20.066406 19.8125 -19.328125 C 21.101562 -17.804688 21.75 -15.804688 21.75 -13.328125 L 21.75 0 Z M 18.359375 0 "/></g></g></g><g fill="#ffcc69" fill-opacity="1"><g transform="translate(511.51038, 797.268505)"><g><path d="M 23.546875 -13.65625 L 19.859375 -13.65625 C 19.273438 -15.007812 18.367188 -16.109375 17.140625 -16.953125 C 15.921875 -17.796875 14.679688 -18.21875 13.421875 -18.21875 C 12.160156 -18.21875 11.078125 -18.019531 10.171875 -17.625 C 9.265625 -17.207031 8.488281 -16.660156 7.84375 -15.984375 C 6.394531 -14.460938 5.671875 -12.6875 5.671875 -10.65625 C 5.671875 -8.59375 6.394531 -6.816406 7.84375 -5.328125 C 9.269531 -3.804688 11.015625 -3.046875 13.078125 -3.046875 C 14.429688 -3.046875 15.691406 -3.40625 16.859375 -4.125 C 17.984375 -4.832031 18.867188 -5.78125 19.515625 -6.96875 L 23.34375 -6.96875 C 22.15625 -3.550781 19.847656 -1.257812 16.421875 -0.09375 C 15.359375 0.289062 14.144531 0.484375 12.78125 0.484375 C 11.425781 0.484375 10.085938 0.175781 8.765625 -0.4375 C 7.441406 -1.019531 6.296875 -1.828125 5.328125 -2.859375 C 3.234375 -5.054688 2.1875 -7.65625 2.1875 -10.65625 C 2.1875 -13.6875 3.234375 -16.285156 5.328125 -18.453125 C 7.460938 -20.648438 10.046875 -21.75 13.078125 -21.75 C 15.535156 -21.75 17.75 -20.988281 19.71875 -19.46875 C 21.59375 -18.019531 22.867188 -16.082031 23.546875 -13.65625 Z M 23.546875 -13.65625 "/></g></g></g><g fill="#ffcc69" fill-opacity="1"><g transform="translate(544.640944, 797.268505)"><g><path d="M 20.59375 -10.65625 C 20.59375 -12.71875 19.878906 -14.523438 18.453125 -16.078125 C 17.003906 -17.628906 15.210938 -18.40625 13.078125 -18.40625 C 10.941406 -18.40625 9.164062 -17.628906 7.75 -16.078125 C 6.300781 -14.523438 5.578125 -12.71875 5.578125 -10.65625 C 5.578125 -8.59375 6.300781 -6.785156 7.75 -5.234375 C 9.164062 -3.679688 10.941406 -2.90625 13.078125 -2.90625 C 15.210938 -2.90625 17.003906 -3.679688 18.453125 -5.234375 C 19.878906 -6.785156 20.59375 -8.59375 20.59375 -10.65625 Z M 23.984375 0 L 20.59375 0 L 20.59375 -3.640625 C 20.394531 -3.378906 20.195312 -3.132812 20 -2.90625 C 17.96875 -0.644531 15.484375 0.484375 12.546875 0.484375 C 9.609375 0.484375 7.140625 -0.644531 5.140625 -2.90625 C 3.171875 -5.101562 2.1875 -7.6875 2.1875 -10.65625 C 2.1875 -13.625 3.171875 -16.207031 5.140625 -18.40625 C 7.140625 -20.664062 9.609375 -21.796875 12.546875 -21.796875 C 15.484375 -21.796875 17.96875 -20.664062 20 -18.40625 C 20.195312 -18.175781 20.394531 -17.9375 20.59375 -17.6875 L 20.59375 -21.3125 L 23.984375 -21.3125 Z M 23.984375 0 "/></g></g></g><g fill="#ffcc69" fill-opacity="1"><g transform="translate(580.144871, 797.268505)"><g><path d="M 18.359375 0 L 18.359375 -13.328125 C 18.359375 -14.710938 18.050781 -15.90625 17.4375 -16.90625 C 16.789062 -17.875 15.742188 -18.359375 14.296875 -18.359375 C 12.835938 -18.359375 11.65625 -18.082031 10.75 -17.53125 C 9.84375 -16.988281 9.117188 -16.28125 8.578125 -15.40625 C 7.546875 -13.789062 7.03125 -11.625 7.03125 -8.90625 L 7.03125 0 L 3.640625 0 L 3.640625 -21.3125 L 7.03125 -21.3125 L 7.03125 -17.625 C 7.738281 -18.820312 8.640625 -19.8125 9.734375 -20.59375 C 10.898438 -21.363281 12.238281 -21.75 13.75 -21.75 C 15.269531 -21.75 16.5 -21.539062 17.4375 -21.125 C 18.375 -20.664062 19.164062 -20.066406 19.8125 -19.328125 C 21.101562 -17.804688 21.75 -15.804688 21.75 -13.328125 L 21.75 0 Z M 18.359375 0 "/></g></g></g><g fill="#ffcc69" fill-opacity="1"><g transform="translate(612.694221, 797.268505)"><g><path d="M 0.96875 -18.171875 L 0.96875 -21.3125 L 6.296875 -21.3125 L 6.296875 -29.59375 L 9.6875 -29.59375 L 9.6875 -21.3125 L 14.96875 -21.3125 L 14.96875 -18.171875 L 9.6875 -18.171875 L 9.6875 0 L 6.296875 0 L 6.296875 -18.171875 Z M 0.96875 -18.171875 "/></g></g></g><g fill="#ffcc69" fill-opacity="1"><g transform="translate(636.525196, 797.268505)"><g><path d="M 24.46875 -11.140625 L 24.46875 -9.34375 L 5.71875 -9.34375 C 6.039062 -7.507812 6.925781 -6.007812 8.375 -4.84375 C 9.863281 -3.644531 11.515625 -3.046875 13.328125 -3.046875 C 14.546875 -3.046875 15.722656 -3.335938 16.859375 -3.921875 C 17.953125 -4.472656 18.875 -5.25 19.625 -6.25 L 23.5 -6.25 C 22.59375 -4.21875 21.234375 -2.617188 19.421875 -1.453125 C 17.578125 -0.253906 15.722656 0.34375 13.859375 0.34375 C 11.953125 0.34375 10.335938 0.0507812 9.015625 -0.53125 C 7.648438 -1.113281 6.46875 -1.90625 5.46875 -2.90625 C 3.28125 -5.039062 2.1875 -7.65625 2.1875 -10.75 C 2.1875 -13.820312 3.28125 -16.457031 5.46875 -18.65625 C 7.632812 -20.8125 10.253906 -21.890625 13.328125 -21.890625 C 16.296875 -21.890625 18.894531 -20.84375 21.125 -18.75 C 23.351562 -16.613281 24.46875 -14.078125 24.46875 -11.140625 Z M 20.875 -12.25 C 20.488281 -14.0625 19.585938 -15.566406 18.171875 -16.765625 C 16.742188 -17.921875 15.128906 -18.5 13.328125 -18.5 C 10.546875 -18.5 8.363281 -17.257812 6.78125 -14.78125 C 6.300781 -14 5.960938 -13.15625 5.765625 -12.25 Z M 20.875 -12.25 "/></g></g></g></svg>