<svg xmlns="http://www.w3.org/2000/svg" xmlns:xlink="http://www.w3.org/1999/xlink" width="1080" zoomAndPan="magnify" viewBox="0 0 810 809.999993" height="1080" preserveAspectRatio="xMidYMid meet" version="1.0"><defs><g/><clipPath id="edd6c3f68e"><path d="M 246 233 L 515.921875 233 L 515.921875 522.03125 L 246 522.03125 Z M 246 233 " clip-rule="nonzero"/></clipPath></defs><rect x="-81" width="972" fill="#ffffff" y="-80.999999" height="971.999992" fill-opacity="1"/><rect x="-81" width="972" fill="#ffcc69" y="-80.999999" height="971.999992" fill-opacity="1"/><path fill="#fecfa7" d="M 651.078125 307.070312 C 634.847656 284.238281 613.265625 273.09375 590.414062 261.292969 C 588.203125 260.152344 585.980469 259 583.746094 257.835938 C 569.515625 250.398438 569.550781 241.738281 570.988281 222.859375 C 571.417969 217.21875 571.902344 210.820312 571.75 204.105469 C 571.398438 188.367188 569.929688 171.796875 561.675781 157.269531 C 556.871094 148.820312 549.582031 140.964844 540.003906 133.910156 C 511.804688 113.152344 473.527344 106.753906 440.105469 117.21875 C 409.058594 126.941406 382.867188 151.007812 370.226562 180.945312 C 343.214844 174.132812 312.457031 167.851562 281.164062 170.617188 C 243.859375 173.910156 212.070312 190.453125 193.945312 216.003906 C 178.582031 237.660156 172.324219 267.550781 176.769531 298.007812 C 179.992188 320.050781 188.253906 342.558594 202.652344 368.359375 C 165.929688 395.941406 153.925781 443.980469 150.414062 480.375 C 148.871094 496.351562 148.035156 517.121094 155.316406 536.066406 C 163.203125 556.609375 179.382812 572.375 195.6875 586.351562 C 206.867188 595.9375 220.128906 606.703125 236.078125 613.167969 C 271.203125 627.417969 315.84375 618.824219 361.8125 588.96875 C 363.136719 588.105469 364.953125 586.925781 365.78125 586.84375 C 367.726562 586.609375 371.945312 592.363281 373.3125 594.246094 C 394.859375 623.960938 428.546875 643.832031 463.414062 647.398438 C 467.277344 647.792969 471.144531 647.988281 475 647.988281 C 508.035156 647.988281 540.117188 633.703125 560.78125 609.230469 C 584.8125 580.78125 591.515625 539.375 577.476562 506.195312 L 577.03125 505.148438 C 575.953125 502.632812 574.839844 500.035156 575.070312 498.53125 C 575.542969 495.449219 582.699219 492.605469 586.539062 491.078125 C 621.953125 476.992188 650.746094 448.449219 663.5625 414.722656 C 677.316406 378.511719 672.539062 337.265625 651.078125 307.070312 Z M 540.796875 155.929688 C 540.050781 156.242188 539.347656 156.660156 538.699219 157.164062 C 538.65625 157.097656 538.601562 157.03125 538.558594 156.964844 C 538.320312 156.265625 538.09375 155.5625 537.863281 154.859375 C 538.15625 154.839844 538.449219 154.824219 538.742188 154.804688 C 539.027344 154.785156 539.277344 154.703125 539.539062 154.640625 C 539.960938 155.070312 540.394531 155.496094 540.796875 155.929688 Z M 616.679688 295.09375 C 617.59375 295.761719 618.488281 296.445312 619.375 297.140625 C 618.734375 297.492188 618.144531 297.949219 617.609375 298.484375 C 617.328125 297.773438 616.929688 297.09375 616.398438 296.476562 C 616.53125 296.019531 616.625 295.558594 616.679688 295.09375 Z M 576.167969 271.992188 C 575.828125 272.285156 575.507812 272.601562 575.207031 272.941406 C 573.898438 271.664062 572.589844 270.386719 571.285156 269.109375 C 572.785156 270.101562 574.40625 271.066406 576.167969 271.992188 Z M 555.113281 245.023438 C 555.515625 247.285156 556.101562 249.503906 556.90625 251.675781 C 556.453125 251.476562 555.988281 251.320312 555.496094 251.21875 C 555.289062 250.84375 555.070312 250.476562 554.863281 250.101562 C 554.949219 248.414062 555.039062 246.722656 555.113281 245.023438 Z M 521.105469 140.792969 C 520.375 140.839844 519.652344 140.972656 518.96875 141.230469 C 518.652344 140.75 518.289062 140.28125 517.824219 139.855469 C 517.082031 139.175781 516.304688 138.550781 515.539062 137.910156 C 517.421875 138.8125 519.285156 139.765625 521.105469 140.792969 Z M 492.542969 323.265625 C 492.496094 324.074219 492.445312 324.882812 492.398438 325.695312 C 492.121094 326.878906 491.894531 328.070312 491.628906 329.253906 C 491.570312 329.109375 491.488281 328.992188 491.429688 328.847656 C 491.800781 326.988281 492.171875 325.125 492.542969 323.265625 Z M 479.292969 246.550781 C 479.5 247.375 479.71875 248.191406 479.9375 249.007812 C 479.664062 250.113281 479.390625 251.222656 479.113281 252.332031 C 479.09375 250.402344 479.152344 248.476562 479.292969 246.550781 Z M 246.101562 336.941406 C 245.160156 332.894531 244.324219 328.828125 243.613281 324.742188 C 244.707031 328.578125 245.796875 332.414062 246.894531 336.25 C 246.628906 336.519531 246.363281 336.753906 246.101562 336.941406 Z M 294.214844 428.1875 C 294.496094 427.011719 294.757812 425.835938 295.050781 424.664062 C 295.339844 423.507812 295.339844 422.453125 295.144531 421.496094 C 296.847656 417.929688 298.4375 414.292969 299.890625 410.597656 C 299.925781 410.8125 299.980469 411.015625 300.035156 411.21875 C 297.734375 417.089844 295.78125 423.082031 294.195312 429.21875 C 294.203125 428.871094 294.210938 428.53125 294.214844 428.1875 Z M 347.496094 491.832031 C 348.457031 490.476562 349.40625 489.113281 350.332031 487.734375 C 350.335938 487.746094 350.339844 487.753906 350.347656 487.757812 C 349.332031 491.136719 348.324219 494.515625 347.335938 497.894531 C 347.441406 496.179688 347.519531 494.457031 347.554688 492.730469 C 347.5625 492.425781 347.53125 492.125 347.496094 491.832031 Z M 394.046875 170.714844 C 393.992188 171.339844 393.960938 171.964844 393.964844 172.605469 C 392.347656 174.605469 390.75 176.617188 389.175781 178.648438 C 390.664062 175.925781 392.300781 173.285156 394.046875 170.714844 Z M 349.417969 207.398438 C 349.273438 207.398438 349.128906 207.402344 348.984375 207.40625 C 348.730469 207.371094 348.472656 207.339844 348.21875 207.304688 C 347.527344 206.160156 346.574219 205.15625 345.457031 204.382812 C 345.347656 204.261719 345.238281 204.140625 345.132812 204.015625 C 347.152344 204.511719 349.160156 205.035156 351.160156 205.597656 C 350.496094 206.089844 349.90625 206.695312 349.417969 207.398438 Z M 279.546875 186.949219 C 280.558594 186.835938 281.558594 186.703125 282.578125 186.613281 C 283.722656 186.511719 284.867188 186.445312 286.011719 186.375 C 283.820312 186.664062 281.613281 187.09375 279.460938 187.570312 C 279.5 187.359375 279.523438 187.15625 279.546875 186.949219 Z M 202.445312 331.019531 C 202.644531 331.117188 202.835938 331.21875 203.039062 331.3125 C 203.210938 331.386719 203.378906 331.441406 203.550781 331.515625 C 204.257812 334.152344 205.066406 336.761719 205.96875 339.347656 C 204.707031 336.53125 203.535156 333.761719 202.445312 331.019531 Z M 208.121094 274.402344 C 208.332031 272.644531 208.578125 270.890625 208.859375 269.144531 C 209.011719 269.003906 209.152344 268.851562 209.292969 268.6875 C 209.339844 269.035156 209.414062 269.375 209.503906 269.710938 C 209.109375 271.300781 208.648438 272.863281 208.121094 274.402344 Z M 229.269531 461.125 C 228.996094 460.652344 228.722656 460.175781 228.449219 459.699219 C 228.699219 458.613281 228.953125 457.527344 229.203125 456.441406 L 231.046875 454.292969 C 230.4375 456.566406 229.851562 458.847656 229.269531 461.125 Z M 319.449219 569.800781 C 322.15625 569.183594 324.851562 568.527344 327.527344 567.8125 C 324.089844 569.464844 320.625 571.058594 317.140625 572.609375 C 317.925781 571.6875 318.6875 570.75 319.449219 569.800781 Z M 536.117188 532.9375 C 536.425781 531.503906 536.742188 530.074219 537.0625 528.640625 C 537.410156 529.078125 537.792969 529.472656 538.210938 529.832031 C 538.269531 530.320312 538.335938 530.804688 538.394531 531.292969 C 537.578125 531.679688 536.808594 532.230469 536.117188 532.9375 Z M 531.328125 460.085938 C 531.695312 459.234375 532.0625 458.386719 532.429688 457.535156 C 532.992188 457.328125 533.558594 457.066406 534.125 456.699219 C 535.957031 455.507812 537.738281 454.25 539.554688 453.035156 C 536.90625 455.484375 534.175781 457.847656 531.328125 460.085938 Z M 567.664062 541.335938 C 568 540.453125 568.289062 539.546875 568.597656 538.648438 C 568.652344 539.679688 568.683594 540.710938 568.699219 541.746094 C 568.367188 541.582031 568.019531 541.449219 567.664062 541.335938 Z M 567.664062 541.335938 " fill-opacity="1" fill-rule="nonzero"/><g clip-path="url(#edd6c3f68e)"><path fill="#8e5f92" d="M 404.972656 301.570312 C 403.746094 299.105469 402.511719 296.644531 403.128906 291.714844 C 403.738281 286.785156 406.207031 279.386719 407.4375 271.996094 C 408.671875 264.605469 408.671875 257.210938 405.585938 250.433594 C 402.511719 243.660156 396.347656 237.492188 390.1875 235.027344 C 384.027344 232.558594 377.863281 233.800781 372.9375 236.261719 C 368.011719 238.726562 364.3125 242.417969 360.613281 246.734375 C 356.914062 251.050781 353.222656 255.976562 351.988281 261.519531 C 350.753906 267.070312 351.988281 273.226562 353.835938 278.777344 C 355.6875 284.320312 358.152344 289.246094 360.609375 292.332031 C 363.078125 295.410156 365.546875 296.644531 366.777344 299.105469 C 368.011719 301.570312 368.011719 305.261719 366.777344 307.730469 C 365.546875 310.195312 363.078125 311.429688 358.761719 312.660156 C 354.453125 313.894531 348.289062 315.128906 339.660156 314.511719 C 331.035156 313.894531 319.945312 311.429688 313.171875 308.347656 C 306.394531 305.261719 303.925781 301.570312 302.695312 299.105469 C 301.46875 296.644531 301.46875 295.410156 302.695312 292.945312 C 303.925781 290.480469 306.394531 286.785156 307.011719 283.703125 C 307.625 280.621094 306.394531 278.160156 305.777344 275.695312 C 305.164062 273.226562 305.164062 270.761719 303.925781 269.527344 C 302.695312 268.300781 300.234375 268.300781 295.917969 268.300781 C 291.609375 268.300781 285.445312 268.300781 282.359375 267.070312 C 279.285156 265.835938 279.285156 263.371094 279.285156 261.519531 C 279.285156 259.675781 279.285156 258.4375 277.433594 258.4375 C 275.585938 258.4375 271.894531 259.675781 269.425781 259.675781 C 266.960938 259.675781 265.726562 258.4375 263.257812 257.210938 C 260.792969 255.976562 257.101562 254.742188 254.636719 254.742188 C 252.175781 254.742188 250.941406 255.976562 249.710938 262.136719 C 248.476562 268.300781 247.242188 279.386719 248.476562 289.246094 C 249.710938 299.105469 253.402344 307.730469 256.484375 313.277344 C 259.566406 318.820312 262.035156 321.289062 265.109375 323.753906 C 268.195312 326.210938 271.886719 328.679688 275.585938 330.527344 C 279.285156 332.371094 282.976562 333.613281 286.675781 334.84375 C 290.375 336.070312 294.066406 337.3125 295.917969 340.390625 C 297.769531 343.46875 297.769531 348.394531 297.769531 360.101562 C 297.769531 371.804688 297.769531 390.296875 299.617188 402.613281 C 301.46875 414.9375 305.160156 421.105469 308.859375 426.03125 C 312.554688 430.964844 316.25 434.65625 319.945312 438.355469 C 301.46875 438.355469 282.976562 438.355469 273.734375 438.972656 C 264.496094 439.582031 264.496094 440.816406 263.878906 442.667969 C 263.261719 444.515625 262.035156 446.980469 262.035156 450.058594 C 262.035156 453.140625 263.261719 456.839844 262.027344 463.617188 C 260.792969 470.390625 257.101562 480.25 254.019531 487.648438 C 250.941406 495.035156 248.476562 499.964844 247.242188 503.660156 C 246.011719 507.359375 246.011719 509.824219 246.011719 511.667969 C 246.011719 513.523438 246.011719 514.757812 246.628906 514.140625 C 247.242188 513.523438 248.476562 511.058594 251.558594 509.824219 C 254.636719 508.589844 259.566406 508.589844 262.644531 508.589844 C 265.726562 508.589844 266.960938 508.589844 268.195312 509.824219 C 269.425781 511.058594 270.660156 513.523438 271.894531 515.375 C 273.121094 517.21875 274.351562 518.449219 275.585938 518.449219 C 276.816406 518.449219 278.050781 517.21875 279.902344 515.984375 C 281.75 514.757812 284.210938 513.523438 286.058594 512.90625 C 287.910156 512.289062 289.144531 512.289062 290.375 512.90625 C 291.609375 513.523438 292.84375 514.757812 294.070312 515.984375 C 295.304688 517.21875 296.535156 518.449219 297.769531 517.832031 C 299 517.21875 300.234375 514.75 300.234375 511.667969 C 300.234375 508.589844 299 504.898438 296.527344 499.964844 C 294.066406 495.035156 290.375 488.875 289.136719 483.949219 C 287.910156 479.015625 289.144531 475.324219 290.992188 473.476562 C 292.835938 471.625 295.304688 471.625 297.769531 471.007812 C 300.234375 470.390625 302.695312 469.15625 305.160156 468.542969 C 307.625 467.925781 310.09375 467.925781 313.785156 467.925781 C 317.484375 467.925781 322.414062 467.925781 329.1875 467.308594 C 335.96875 466.691406 344.59375 465.457031 351.988281 464.839844 C 359.378906 464.230469 365.546875 464.230469 368.621094 465.464844 C 371.703125 466.691406 371.703125 469.15625 371.703125 472.855469 C 371.703125 476.550781 371.703125 481.480469 368.621094 488.875 C 365.546875 496.265625 359.378906 506.125 357.53125 511.058594 C 355.6875 515.984375 358.152344 515.984375 362.460938 514.140625 C 366.777344 512.289062 372.9375 508.59375 379.714844 503.050781 C 386.488281 497.507812 393.886719 490.109375 399.429688 482.714844 C 404.972656 475.324219 408.671875 467.925781 411.136719 464.234375 C 413.597656 460.535156 414.832031 460.535156 424.074219 460.535156 C 433.316406 460.535156 450.566406 460.535156 459.8125 461.148438 C 469.054688 461.765625 470.289062 462.996094 472.75 466.691406 C 475.214844 470.390625 478.914062 476.550781 480.140625 480.867188 C 481.375 485.175781 480.140625 487.648438 477.679688 489.492188 C 475.214844 491.339844 471.515625 492.574219 469.054688 496.890625 C 466.589844 501.199219 465.355469 508.59375 464.738281 512.910156 C 464.121094 517.21875 464.121094 518.449219 465.972656 517.21875 C 467.820312 515.980469 471.515625 512.289062 473.972656 510.441406 C 476.445312 508.589844 477.679688 508.589844 478.914062 510.441406 C 480.140625 512.289062 481.375 515.980469 482.609375 518.449219 C 483.839844 520.914062 485.074219 522.148438 486.304688 522.148438 C 487.53125 522.148438 488.773438 520.914062 490 519.066406 C 491.234375 517.21875 492.46875 514.75 493.082031 514.132812 C 493.699219 513.523438 493.699219 514.757812 494.316406 514.757812 C 494.929688 514.757812 496.164062 513.523438 497.390625 512.90625 C 498.625 512.289062 499.859375 512.289062 501.707031 513.523438 C 503.554688 514.75 506.023438 517.21875 508.484375 518.449219 C 510.949219 519.675781 513.414062 519.675781 514.648438 518.449219 C 515.882812 517.21875 515.882812 514.75 515.265625 509.207031 C 514.648438 503.664062 513.414062 495.035156 512.796875 485.792969 C 512.183594 476.550781 512.183594 466.691406 511.566406 459.917969 C 510.949219 453.136719 509.714844 449.441406 507.246094 445.746094 C 504.789062 442.046875 501.089844 438.355469 495.546875 436.507812 C 490 434.65625 482.605469 434.65625 475.214844 434.65625 C 478.914062 424.796875 482.605469 414.941406 483.832031 406.316406 C 485.074219 397.691406 483.839844 390.296875 481.375 380.4375 C 478.914062 370.582031 475.214844 358.253906 472.75 350.246094 C 470.289062 342.230469 469.054688 338.539062 468.4375 336.695312 C 467.820312 334.84375 467.820312 334.84375 469.054688 334.222656 C 470.28125 333.613281 472.75 332.371094 477.679688 332.371094 C 482.605469 332.371094 490 333.613281 494.929688 333.613281 C 499.859375 333.613281 502.324219 332.371094 503.554688 330.527344 C 504.789062 328.679688 504.789062 326.210938 504.789062 317.589844 C 504.789062 308.960938 504.789062 294.179688 505.40625 282.472656 C 506.023438 270.761719 507.25 262.136719 507.25 257.820312 C 507.25 253.511719 506.023438 253.511719 504.789062 254.125 C 503.558594 254.742188 502.324219 255.976562 498.625 258.445312 C 494.929688 260.910156 488.773438 264.601562 485.074219 266.453125 C 481.375 268.300781 480.140625 268.300781 478.914062 266.453125 C 477.679688 264.601562 476.445312 260.910156 475.214844 259.0625 C 473.980469 257.210938 472.75 257.210938 470.898438 258.4375 C 469.054688 259.675781 466.589844 262.136719 465.355469 263.371094 C 464.121094 264.601562 464.121094 264.601562 463.507812 265.21875 C 462.890625 265.828125 461.664062 267.070312 459.8125 267.070312 C 457.964844 267.070312 455.5 265.828125 453.648438 265.828125 C 451.804688 265.828125 450.570312 267.070312 449.949219 268.300781 C 449.339844 269.527344 449.339844 270.769531 450.570312 273.230469 C 451.804688 275.695312 454.265625 279.386719 456.113281 282.472656 C 457.964844 285.550781 459.199219 288.019531 459.199219 291.714844 C 459.199219 295.410156 457.964844 300.339844 456.113281 304.039062 C 454.265625 307.730469 451.804688 310.203125 448.714844 312.660156 C 445.640625 315.121094 441.941406 317.589844 437.015625 317.589844 C 432.089844 317.589844 425.921875 315.121094 420.988281 313.277344 C 416.0625 311.429688 412.371094 310.195312 409.902344 308.347656 C 407.4375 306.496094 406.207031 304.035156 404.972656 301.570312 Z M 335.96875 344.703125 C 334.738281 344.703125 331.039062 347.164062 327.960938 354.5625 C 324.878906 361.953125 322.414062 374.273438 321.179688 383.515625 C 319.945312 392.753906 319.945312 398.921875 321.792969 404.464844 C 323.644531 410.007812 327.335938 414.9375 330.421875 419.25 C 333.503906 423.566406 335.96875 427.257812 338.429688 429.113281 C 340.894531 430.957031 343.363281 430.957031 345.210938 430.339844 C 347.054688 429.722656 348.289062 428.496094 348.289062 426.03125 C 348.289062 423.566406 347.054688 419.871094 345.210938 414.324219 C 343.363281 408.78125 340.894531 401.382812 339.046875 393.375 C 337.203125 385.363281 335.96875 376.738281 335.351562 369.347656 C 334.738281 361.953125 334.738281 355.789062 335.351562 351.476562 C 335.96875 347.164062 337.203125 344.703125 335.96875 344.703125 Z M 363.695312 334.222656 C 365.539062 333.613281 366.777344 336.070312 368.011719 342.238281 C 369.238281 348.398438 370.472656 358.253906 372.320312 367.496094 C 374.164062 376.738281 376.636719 385.363281 377.863281 393.992188 C 379.097656 402.613281 379.097656 411.246094 379.097656 417.40625 C 379.097656 423.566406 379.097656 427.257812 379.097656 429.722656 C 379.097656 432.1875 379.097656 433.421875 377.863281 432.808594 C 376.636719 432.191406 374.164062 429.722656 372.320312 426.648438 C 370.472656 423.566406 369.238281 419.871094 368.621094 415.558594 C 368.011719 411.246094 368.011719 406.3125 366.777344 400.765625 C 365.546875 395.222656 363.078125 389.0625 361.847656 383.515625 C 360.613281 377.972656 360.613281 373.039062 359.996094 368.113281 C 359.386719 363.179688 358.152344 358.253906 357.53125 353.9375 C 356.914062 349.628906 356.914062 345.929688 358.152344 342.230469 C 359.378906 338.535156 361.847656 334.84375 363.695312 334.222656 Z M 398.195312 329.304688 C 400.046875 327.453125 402.511719 327.453125 404.972656 328.0625 C 407.4375 328.679688 409.90625 329.910156 411.753906 332.996094 C 413.597656 336.070312 414.832031 341.003906 415.449219 351.476562 C 416.066406 361.953125 416.066406 377.972656 416.066406 390.296875 C 416.066406 402.613281 416.066406 411.246094 414.832031 417.40625 C 413.597656 423.566406 411.136719 427.257812 409.902344 429.722656 C 408.671875 432.1875 408.671875 433.421875 408.054688 434.039062 C 407.4375 434.65625 406.207031 434.65625 405.589844 431.574219 C 404.972656 428.496094 404.972656 422.332031 403.738281 416.171875 C 402.511719 410.007812 400.046875 403.847656 398.8125 397.070312 C 397.578125 390.296875 397.578125 382.898438 397.578125 374.886719 C 397.578125 366.882812 397.578125 358.253906 396.964844 352.09375 C 396.347656 345.929688 395.121094 342.238281 395.121094 338.539062 C 395.121094 334.84375 396.347656 331.148438 398.195312 329.304688 Z M 441.941406 350.246094 C 444.40625 352.09375 450.566406 358.253906 454.261719 365.03125 C 457.964844 371.804688 459.199219 379.203125 459.8125 385.980469 C 460.429688 392.753906 460.429688 398.921875 460.429688 404.464844 C 460.429688 410.007812 460.429688 414.9375 457.964844 418.632812 C 455.5 422.332031 450.566406 424.796875 446.871094 426.03125 C 443.179688 427.265625 440.707031 427.265625 439.480469 427.265625 C 438.246094 427.265625 438.246094 427.265625 439.480469 424.800781 C 440.707031 422.332031 443.179688 417.40625 444.40625 409.398438 C 445.640625 401.382812 445.640625 390.296875 445.023438 381.671875 C 444.40625 373.039062 443.171875 366.882812 442.554688 362.570312 C 441.941406 358.253906 441.941406 355.789062 441.324219 353.328125 C 440.707031 350.863281 439.480469 348.394531 441.941406 350.246094 Z M 441.941406 350.246094 " fill-opacity="1" fill-rule="evenodd"/></g><g fill="#a09841" fill-opacity="1"><g transform="translate(245.921242, 797.343917)"><g><path d="M 23.0625 -29.609375 L 6.984375 -29.609375 L 6.984375 -17.96875 L 22.578125 -17.96875 L 22.578125 -14.78125 L 6.984375 -14.78125 L 6.984375 0 L 3.609375 0 L 3.609375 -32.75 L 23.0625 -32.75 Z M 23.0625 -29.609375 "/></g></g></g><g fill="#a09841" fill-opacity="1"><g transform="translate(277.796515, 797.343917)"><g><path d="M 24.3125 -11.078125 L 24.3125 -9.296875 L 5.6875 -9.296875 C 6 -7.460938 6.878906 -5.96875 8.328125 -4.8125 C 9.804688 -3.625 11.445312 -3.03125 13.25 -3.03125 C 14.46875 -3.03125 15.640625 -3.320312 16.765625 -3.90625 C 17.847656 -4.445312 18.757812 -5.21875 19.5 -6.21875 L 23.359375 -6.21875 C 22.453125 -4.1875 21.101562 -2.59375 19.3125 -1.4375 C 17.476562 -0.25 15.628906 0.34375 13.765625 0.34375 C 11.878906 0.34375 10.273438 0.0507812 8.953125 -0.53125 C 7.609375 -1.101562 6.4375 -1.890625 5.4375 -2.890625 C 3.257812 -5.003906 2.171875 -7.601562 2.171875 -10.6875 C 2.171875 -13.738281 3.257812 -16.359375 5.4375 -18.546875 C 7.59375 -20.691406 10.195312 -21.765625 13.25 -21.765625 C 16.195312 -21.765625 18.78125 -20.722656 21 -18.640625 C 23.207031 -16.515625 24.3125 -13.992188 24.3125 -11.078125 Z M 20.75 -12.1875 C 20.363281 -13.976562 19.46875 -15.46875 18.0625 -16.65625 C 16.644531 -17.8125 15.039062 -18.390625 13.25 -18.390625 C 10.476562 -18.390625 8.304688 -17.15625 6.734375 -14.6875 C 6.253906 -13.914062 5.921875 -13.082031 5.734375 -12.1875 Z M 20.75 -12.1875 "/></g></g></g><g fill="#a09841" fill-opacity="1"><g transform="translate(311.886639, 797.343917)"><g><path d="M 6.6875 -3.03125 C 7.53125 -2.457031 8.625 -2.171875 9.96875 -2.171875 C 13.050781 -2.171875 14.59375 -3.328125 14.59375 -5.640625 C 14.59375 -6.984375 13.484375 -8.007812 11.265625 -8.71875 C 10.335938 -9.039062 9.34375 -9.328125 8.28125 -9.578125 C 7.1875 -9.835938 6.175781 -10.175781 5.25 -10.59375 C 4.15625 -11.101562 3.335938 -11.742188 2.796875 -12.515625 C 2.242188 -13.285156 1.96875 -14.203125 1.96875 -15.265625 C 1.96875 -17.378906 2.707031 -18.96875 4.1875 -20.03125 C 5.664062 -21.125 7.429688 -21.671875 9.484375 -21.671875 C 11.535156 -21.671875 13.238281 -21.253906 14.59375 -20.421875 C 15.9375 -19.585938 16.851562 -18.09375 17.34375 -15.9375 L 13.71875 -15.9375 C 13.332031 -17.125 12.773438 -17.910156 12.046875 -18.296875 C 11.335938 -18.679688 10.453125 -18.875 9.390625 -18.875 C 8.328125 -18.875 7.425781 -18.648438 6.6875 -18.203125 C 5.914062 -17.722656 5.53125 -17.015625 5.53125 -16.078125 C 5.53125 -15.117188 5.851562 -14.414062 6.5 -13.96875 C 7.113281 -13.550781 7.882812 -13.179688 8.8125 -12.859375 C 9.738281 -12.566406 10.75 -12.3125 11.84375 -12.09375 C 12.90625 -11.832031 13.914062 -11.476562 14.875 -11.03125 C 17.0625 -10 18.15625 -8.34375 18.15625 -6.0625 C 18.15625 -3.789062 17.335938 -2.109375 15.703125 -1.015625 C 14.867188 -0.460938 13.953125 -0.046875 12.953125 0.234375 C 11.992188 0.492188 10.9375 0.625 9.78125 0.625 C 4.863281 0.625 2.035156 -1.554688 1.296875 -5.921875 L 4.859375 -5.921875 C 5.210938 -4.546875 5.820312 -3.582031 6.6875 -3.03125 Z M 6.6875 -3.03125 "/></g></g></g><g fill="#a09841" fill-opacity="1"><g transform="translate(339.091463, 797.343917)"><g><path d="M 0.96875 -18.0625 L 0.96875 -21.1875 L 6.265625 -21.1875 L 6.265625 -29.421875 L 9.625 -29.421875 L 9.625 -21.1875 L 14.875 -21.1875 L 14.875 -18.0625 L 9.625 -18.0625 L 9.625 0 L 6.265625 0 L 6.265625 -18.0625 Z M 0.96875 -18.0625 "/></g></g></g><g fill="#a09841" fill-opacity="1"><g transform="translate(362.781417, 797.343917)"><g><path d="M 20.46875 -10.59375 C 20.46875 -12.644531 19.757812 -14.441406 18.34375 -15.984375 C 16.90625 -17.523438 15.125 -18.296875 13 -18.296875 C 10.882812 -18.296875 9.117188 -17.523438 7.703125 -15.984375 C 6.253906 -14.441406 5.53125 -12.644531 5.53125 -10.59375 C 5.53125 -8.539062 6.253906 -6.742188 7.703125 -5.203125 C 9.117188 -3.660156 10.882812 -2.890625 13 -2.890625 C 15.125 -2.890625 16.90625 -3.660156 18.34375 -5.203125 C 19.757812 -6.742188 20.46875 -8.539062 20.46875 -10.59375 Z M 23.84375 0 L 20.46875 0 L 20.46875 -3.609375 C 20.269531 -3.347656 20.078125 -3.109375 19.890625 -2.890625 C 17.867188 -0.640625 15.394531 0.484375 12.46875 0.484375 C 9.550781 0.484375 7.097656 -0.640625 5.109375 -2.890625 C 3.148438 -5.066406 2.171875 -7.632812 2.171875 -10.59375 C 2.171875 -13.550781 3.148438 -16.117188 5.109375 -18.296875 C 7.097656 -20.546875 9.550781 -21.671875 12.46875 -21.671875 C 15.394531 -21.671875 17.867188 -20.546875 19.890625 -18.296875 C 20.078125 -18.078125 20.269531 -17.835938 20.46875 -17.578125 L 20.46875 -21.1875 L 23.84375 -21.1875 Z M 23.84375 0 "/></g></g></g><g fill="#a09841" fill-opacity="1"><g transform="translate(398.075257, 797.343917)"><g><path d="M 6.6875 -3.03125 C 7.53125 -2.457031 8.625 -2.171875 9.96875 -2.171875 C 13.050781 -2.171875 14.59375 -3.328125 14.59375 -5.640625 C 14.59375 -6.984375 13.484375 -8.007812 11.265625 -8.71875 C 10.335938 -9.039062 9.34375 -9.328125 8.28125 -9.578125 C 7.1875 -9.835938 6.175781 -10.175781 5.25 -10.59375 C 4.15625 -11.101562 3.335938 -11.742188 2.796875 -12.515625 C 2.242188 -13.285156 1.96875 -14.203125 1.96875 -15.265625 C 1.96875 -17.378906 2.707031 -18.96875 4.1875 -20.03125 C 5.664062 -21.125 7.429688 -21.671875 9.484375 -21.671875 C 11.535156 -21.671875 13.238281 -21.253906 14.59375 -20.421875 C 15.9375 -19.585938 16.851562 -18.09375 17.34375 -15.9375 L 13.71875 -15.9375 C 13.332031 -17.125 12.773438 -17.910156 12.046875 -18.296875 C 11.335938 -18.679688 10.453125 -18.875 9.390625 -18.875 C 8.328125 -18.875 7.425781 -18.648438 6.6875 -18.203125 C 5.914062 -17.722656 5.53125 -17.015625 5.53125 -16.078125 C 5.53125 -15.117188 5.851562 -14.414062 6.5 -13.96875 C 7.113281 -13.550781 7.882812 -13.179688 8.8125 -12.859375 C 9.738281 -12.566406 10.75 -12.3125 11.84375 -12.09375 C 12.90625 -11.832031 13.914062 -11.476562 14.875 -11.03125 C 17.0625 -10 18.15625 -8.34375 18.15625 -6.0625 C 18.15625 -3.789062 17.335938 -2.109375 15.703125 -1.015625 C 14.867188 -0.460938 13.953125 -0.046875 12.953125 0.234375 C 11.992188 0.492188 10.9375 0.625 9.78125 0.625 C 4.863281 0.625 2.035156 -1.554688 1.296875 -5.921875 L 4.859375 -5.921875 C 5.210938 -4.546875 5.820312 -3.582031 6.6875 -3.03125 Z M 6.6875 -3.03125 "/></g></g></g><g fill="#a09841" fill-opacity="1"><g transform="translate(425.280081, 797.343917)"><g/></g></g><g fill="#a09841" fill-opacity="1"><g transform="translate(446.129247, 797.343917)"><g><path d="M 7.03125 -28.515625 C 7.445312 -28.085938 7.65625 -27.585938 7.65625 -27.015625 C 7.65625 -26.398438 7.445312 -25.882812 7.03125 -25.46875 C 6.613281 -25.050781 6.113281 -24.84375 5.53125 -24.84375 C 4.925781 -24.84375 4.414062 -25.050781 4 -25.46875 C 3.582031 -25.882812 3.375 -26.398438 3.375 -27.015625 C 3.375 -27.585938 3.582031 -28.085938 4 -28.515625 C 4.414062 -28.929688 4.925781 -29.140625 5.53125 -29.140625 C 6.113281 -29.140625 6.613281 -28.929688 7.03125 -28.515625 Z M 7.21875 0 L 3.859375 0 L 3.859375 -21.1875 L 7.21875 -21.1875 Z M 7.21875 0 "/></g></g></g><g fill="#a09841" fill-opacity="1"><g transform="translate(465.004322, 797.343917)"><g><path d="M 18.25 0 L 18.25 -13.25 C 18.25 -14.625 17.945312 -15.8125 17.34375 -16.8125 C 16.695312 -17.769531 15.648438 -18.25 14.203125 -18.25 C 12.765625 -18.25 11.59375 -17.976562 10.6875 -17.4375 C 9.789062 -16.882812 9.070312 -16.175781 8.53125 -15.3125 C 7.5 -13.707031 6.984375 -11.554688 6.984375 -8.859375 L 6.984375 0 L 3.609375 0 L 3.609375 -21.1875 L 6.984375 -21.1875 L 6.984375 -17.53125 C 7.691406 -18.71875 8.585938 -19.695312 9.671875 -20.46875 C 10.828125 -21.238281 12.160156 -21.625 13.671875 -21.625 C 15.179688 -21.625 16.40625 -21.414062 17.34375 -21 C 18.269531 -20.550781 19.054688 -19.957031 19.703125 -19.21875 C 20.984375 -17.707031 21.625 -15.71875 21.625 -13.25 L 21.625 0 Z M 18.25 0 "/></g></g></g><g fill="#a09841" fill-opacity="1"><g transform="translate(497.361083, 797.343917)"><g><path d="M 14.984375 -32.984375 L 12.09375 -32.984375 C 10.96875 -32.984375 10.226562 -32.726562 9.875 -32.21875 C 9.519531 -31.707031 9.34375 -31.082031 9.34375 -30.34375 L 9.34375 -21.1875 L 14.984375 -21.1875 L 14.984375 -18.0625 L 9.34375 -18.0625 L 9.34375 0 L 5.96875 0 L 5.96875 -18.0625 L 1.6875 -18.0625 L 1.6875 -21.1875 L 5.96875 -21.1875 L 5.96875 -29.375 C 5.96875 -31.53125 6.484375 -33.203125 7.515625 -34.390625 C 8.503906 -35.546875 10.1875 -36.125 12.5625 -36.125 L 14.984375 -36.125 Z M 14.984375 -32.984375 "/></g></g></g><g fill="#a09841" fill-opacity="1"><g transform="translate(521.628829, 797.343917)"><g><path d="M 20.46875 -10.59375 C 20.46875 -12.644531 19.757812 -14.441406 18.34375 -15.984375 C 16.90625 -17.523438 15.125 -18.296875 13 -18.296875 C 10.882812 -18.296875 9.117188 -17.523438 7.703125 -15.984375 C 6.253906 -14.441406 5.53125 -12.644531 5.53125 -10.59375 C 5.53125 -8.539062 6.253906 -6.742188 7.703125 -5.203125 C 9.117188 -3.660156 10.882812 -2.890625 13 -2.890625 C 15.125 -2.890625 16.90625 -3.660156 18.34375 -5.203125 C 19.757812 -6.742188 20.46875 -8.539062 20.46875 -10.59375 Z M 23.84375 0 L 20.46875 0 L 20.46875 -3.609375 C 20.269531 -3.347656 20.078125 -3.109375 19.890625 -2.890625 C 17.867188 -0.640625 15.394531 0.484375 12.46875 0.484375 C 9.550781 0.484375 7.097656 -0.640625 5.109375 -2.890625 C 3.148438 -5.066406 2.171875 -7.632812 2.171875 -10.59375 C 2.171875 -13.550781 3.148438 -16.117188 5.109375 -18.296875 C 7.097656 -20.546875 9.550781 -21.671875 12.46875 -21.671875 C 15.394531 -21.671875 17.867188 -20.546875 19.890625 -18.296875 C 20.078125 -18.078125 20.269531 -17.835938 20.46875 -17.578125 L 20.46875 -21.1875 L 23.84375 -21.1875 Z M 23.84375 0 "/></g></g></g><g fill="#a09841" fill-opacity="1"><g transform="translate(556.922669, 797.343917)"><g><path d="M 18.25 0 L 18.25 -13.25 C 18.25 -14.625 17.945312 -15.8125 17.34375 -16.8125 C 16.695312 -17.769531 15.648438 -18.25 14.203125 -18.25 C 12.765625 -18.25 11.59375 -17.976562 10.6875 -17.4375 C 9.789062 -16.882812 9.070312 -16.175781 8.53125 -15.3125 C 7.5 -13.707031 6.984375 -11.554688 6.984375 -8.859375 L 6.984375 0 L 3.609375 0 L 3.609375 -21.1875 L 6.984375 -21.1875 L 6.984375 -17.53125 C 7.691406 -18.71875 8.585938 -19.695312 9.671875 -20.46875 C 10.828125 -21.238281 12.160156 -21.625 13.671875 -21.625 C 15.179688 -21.625 16.40625 -21.414062 17.34375 -21 C 18.269531 -20.550781 19.054688 -19.957031 19.703125 -19.21875 C 20.984375 -17.707031 21.625 -15.71875 21.625 -13.25 L 21.625 0 Z M 18.25 0 "/></g></g></g><g fill="#a09841" fill-opacity="1"><g transform="translate(589.27943, 797.343917)"><g><path d="M 0.96875 -18.0625 L 0.96875 -21.1875 L 6.265625 -21.1875 L 6.265625 -29.421875 L 9.625 -29.421875 L 9.625 -21.1875 L 14.875 -21.1875 L 14.875 -18.0625 L 9.625 -18.0625 L 9.625 0 L 6.265625 0 L 6.265625 -18.0625 Z M 0.96875 -18.0625 "/></g></g></g><g fill="#a09841" fill-opacity="1"><g transform="translate(612.969401, 797.343917)"><g><path d="M 7.03125 -28.515625 C 7.445312 -28.085938 7.65625 -27.585938 7.65625 -27.015625 C 7.65625 -26.398438 7.445312 -25.882812 7.03125 -25.46875 C 6.613281 -25.050781 6.113281 -24.84375 5.53125 -24.84375 C 4.925781 -24.84375 4.414062 -25.050781 4 -25.46875 C 3.582031 -25.882812 3.375 -26.398438 3.375 -27.015625 C 3.375 -27.585938 3.582031 -28.085938 4 -28.515625 C 4.414062 -28.929688 4.925781 -29.140625 5.53125 -29.140625 C 6.113281 -29.140625 6.613281 -28.929688 7.03125 -28.515625 Z M 7.21875 0 L 3.859375 0 L 3.859375 -21.1875 L 7.21875 -21.1875 Z M 7.21875 0 "/></g></g></g><g fill="#a09841" fill-opacity="1"><g transform="translate(631.844459, 797.343917)"><g><path d="M 6.984375 0 L 3.609375 0 L 3.609375 -36.125 L 6.984375 -36.125 Z M 6.984375 0 "/></g></g></g></svg>