<svg xmlns="http://www.w3.org/2000/svg" xmlns:xlink="http://www.w3.org/1999/xlink" width="1080" zoomAndPan="magnify" viewBox="0 0 810 809.999993" height="1080" preserveAspectRatio="xMidYMid meet" version="1.0"><defs><g/><clipPath id="f6f379da25"><path d="M 161 147 L 660 147 L 660 658.75 L 161 658.75 Z M 161 147 " clip-rule="nonzero"/></clipPath><clipPath id="8717718260"><path d="M 461 362 L 480 362 L 480 390 L 461 390 Z M 461 362 " clip-rule="nonzero"/></clipPath><clipPath id="d3deabdcbe"><path d="M 319.628906 230.898438 L 630.71875 275.359375 L 574.589844 668.117188 L 263.5 623.660156 Z M 319.628906 230.898438 " clip-rule="nonzero"/></clipPath><clipPath id="800e04815d"><path d="M 319.628906 230.898438 L 630.71875 275.359375 L 574.589844 668.117188 L 263.5 623.660156 Z M 319.628906 230.898438 " clip-rule="nonzero"/></clipPath><clipPath id="3e27e79628"><path d="M 297 253 L 609 253 L 609 647 L 297 647 Z M 297 253 " clip-rule="nonzero"/></clipPath><clipPath id="f71b50adfc"><path d="M 319.628906 230.898438 L 630.71875 275.359375 L 574.589844 668.117188 L 263.5 623.660156 Z M 319.628906 230.898438 " clip-rule="nonzero"/></clipPath><clipPath id="a1674b4f4b"><path d="M 319.628906 230.898438 L 630.71875 275.359375 L 574.589844 668.117188 L 263.5 623.660156 Z M 319.628906 230.898438 " clip-rule="nonzero"/></clipPath></defs><rect x="-81" width="972" fill="#ffffff" y="-80.999999" height="971.999992" fill-opacity="1"/><rect x="-81" width="972" fill="#ffbcb0" y="-80.999999" height="971.999992" fill-opacity="1"/><g clip-path="url(#f6f379da25)"><path fill="#fecfa7" d="M 640.34375 333.289062 C 624.84375 311.484375 604.230469 300.839844 582.410156 289.574219 C 580.296875 288.480469 578.171875 287.382812 576.042969 286.269531 C 562.453125 279.167969 562.484375 270.898438 563.855469 252.867188 C 564.265625 247.480469 564.730469 241.371094 564.585938 234.960938 C 564.25 219.929688 562.847656 204.105469 554.960938 190.234375 C 550.375 182.164062 543.414062 174.660156 534.265625 167.925781 C 507.339844 148.097656 470.78125 141.992188 438.867188 151.984375 C 409.21875 161.269531 384.207031 184.253906 372.136719 212.84375 C 346.339844 206.335938 316.964844 200.335938 287.082031 202.980469 C 251.457031 206.125 221.097656 221.921875 203.789062 246.320312 C 189.117188 267 183.140625 295.546875 187.386719 324.632812 C 190.464844 345.683594 198.355469 367.179688 212.101562 391.820312 C 177.035156 418.15625 165.570312 464.03125 162.21875 498.789062 C 160.746094 514.046875 159.945312 533.882812 166.898438 551.976562 C 174.433594 571.59375 189.882812 586.648438 205.453125 599.996094 C 216.128906 609.148438 228.792969 619.429688 244.023438 625.605469 C 277.566406 639.210938 320.199219 631.007812 364.101562 602.496094 C 365.363281 601.671875 367.097656 600.546875 367.886719 600.46875 C 369.75 600.242188 373.773438 605.734375 375.082031 607.535156 C 395.660156 635.914062 427.828125 654.886719 461.125 658.292969 C 464.816406 658.671875 468.507812 658.859375 472.191406 658.859375 C 503.738281 658.859375 534.375 645.214844 554.109375 621.847656 C 577.058594 594.675781 583.460938 555.132812 570.054688 523.449219 L 569.628906 522.449219 C 568.597656 520.046875 567.535156 517.566406 567.753906 516.128906 C 568.207031 513.1875 575.039062 510.472656 578.710938 509.011719 C 612.53125 495.558594 640.023438 468.300781 652.261719 436.09375 C 665.398438 401.515625 660.835938 362.125 640.34375 333.289062 Z M 535.023438 188.953125 C 534.3125 189.25 533.644531 189.648438 533.023438 190.128906 C 532.980469 190.066406 532.929688 190.003906 532.886719 189.941406 C 532.660156 189.273438 532.441406 188.601562 532.222656 187.929688 C 532.503906 187.914062 532.78125 187.894531 533.0625 187.878906 C 533.332031 187.859375 533.574219 187.78125 533.824219 187.722656 C 534.226562 188.132812 534.640625 188.539062 535.023438 188.953125 Z M 607.492188 321.851562 C 608.363281 322.488281 609.21875 323.144531 610.066406 323.804688 C 609.453125 324.140625 608.890625 324.578125 608.378906 325.089844 C 608.109375 324.410156 607.730469 323.761719 607.222656 323.171875 C 607.347656 322.734375 607.441406 322.296875 607.492188 321.851562 Z M 568.804688 299.789062 C 568.480469 300.070312 568.171875 300.371094 567.886719 300.695312 C 566.636719 299.472656 565.386719 298.257812 564.140625 297.035156 C 565.570312 297.984375 567.125 298.90625 568.804688 299.789062 Z M 548.695312 274.035156 C 549.082031 276.195312 549.640625 278.316406 550.40625 280.386719 C 549.976562 280.195312 549.53125 280.050781 549.0625 279.949219 C 548.863281 279.59375 548.65625 279.242188 548.457031 278.886719 C 548.542969 277.273438 548.628906 275.660156 548.695312 274.035156 Z M 516.222656 174.496094 C 515.519531 174.542969 514.832031 174.671875 514.179688 174.914062 C 513.875 174.457031 513.53125 174.007812 513.085938 173.605469 C 512.378906 172.953125 511.636719 172.355469 510.902344 171.742188 C 512.703125 172.605469 514.484375 173.515625 516.222656 174.496094 Z M 488.945312 348.753906 C 488.898438 349.527344 488.851562 350.300781 488.804688 351.074219 C 488.542969 352.203125 488.324219 353.34375 488.070312 354.472656 C 488.015625 354.332031 487.9375 354.222656 487.878906 354.085938 C 488.234375 352.308594 488.589844 350.53125 488.945312 348.753906 Z M 476.289062 275.492188 C 476.488281 276.28125 476.695312 277.0625 476.90625 277.839844 C 476.644531 278.898438 476.382812 279.957031 476.121094 281.011719 C 476.101562 279.171875 476.15625 277.332031 476.289062 275.492188 Z M 253.597656 361.8125 C 252.695312 357.949219 251.902344 354.066406 251.21875 350.164062 C 252.265625 353.828125 253.308594 357.492188 254.351562 361.152344 C 254.101562 361.410156 253.847656 361.636719 253.597656 361.8125 Z M 299.546875 448.953125 C 299.8125 447.832031 300.0625 446.707031 300.34375 445.589844 C 300.617188 444.484375 300.617188 443.476562 300.433594 442.5625 C 302.058594 439.15625 303.574219 435.683594 304.964844 432.15625 C 305 432.359375 305.050781 432.550781 305.101562 432.746094 C 302.90625 438.355469 301.039062 444.078125 299.527344 449.9375 C 299.535156 449.605469 299.539062 449.28125 299.546875 448.953125 Z M 350.429688 509.734375 C 351.34375 508.4375 352.25 507.136719 353.132812 505.820312 C 353.140625 505.828125 353.144531 505.835938 353.152344 505.84375 C 352.179688 509.066406 351.21875 512.292969 350.273438 515.523438 C 350.375 513.882812 350.449219 512.238281 350.484375 510.589844 C 350.488281 510.296875 350.460938 510.011719 350.429688 509.734375 Z M 394.882812 203.074219 C 394.832031 203.667969 394.800781 204.265625 394.804688 204.875 C 393.261719 206.785156 391.734375 208.710938 390.230469 210.648438 C 391.652344 208.046875 393.214844 205.527344 394.882812 203.074219 Z M 352.261719 238.101562 C 352.125 238.105469 351.988281 238.105469 351.851562 238.113281 C 351.605469 238.078125 351.363281 238.046875 351.117188 238.015625 C 350.457031 236.921875 349.546875 235.960938 348.480469 235.222656 C 348.375 235.109375 348.273438 234.992188 348.171875 234.875 C 350.097656 235.347656 352.015625 235.847656 353.925781 236.382812 C 353.292969 236.855469 352.730469 237.433594 352.261719 238.101562 Z M 285.539062 218.574219 C 286.5 218.46875 287.457031 218.339844 288.429688 218.253906 C 289.523438 218.15625 290.617188 218.09375 291.710938 218.027344 C 289.617188 218.300781 287.507812 218.710938 285.453125 219.167969 C 285.492188 218.96875 285.515625 218.769531 285.539062 218.574219 Z M 211.90625 356.160156 C 212.097656 356.253906 212.277344 356.351562 212.472656 356.4375 C 212.636719 356.511719 212.800781 356.5625 212.960938 356.632812 C 213.640625 359.152344 214.410156 361.644531 215.273438 364.109375 C 214.070312 361.421875 212.949219 358.777344 211.90625 356.160156 Z M 217.324219 302.089844 C 217.53125 300.410156 217.761719 298.738281 218.03125 297.070312 C 218.175781 296.9375 218.3125 296.789062 218.449219 296.636719 C 218.492188 296.964844 218.5625 297.289062 218.648438 297.609375 C 218.273438 299.128906 217.828125 300.621094 217.324219 302.089844 Z M 237.523438 480.410156 C 237.261719 479.953125 237 479.5 236.738281 479.046875 C 236.980469 478.007812 237.21875 476.972656 237.457031 475.933594 L 239.21875 473.882812 C 238.640625 476.054688 238.082031 478.230469 237.523438 480.410156 Z M 323.644531 584.191406 C 326.230469 583.601562 328.804688 582.972656 331.359375 582.292969 C 328.074219 583.867188 324.765625 585.394531 321.4375 586.875 C 322.1875 585.992188 322.917969 585.09375 323.644531 584.191406 Z M 530.554688 548.988281 C 530.851562 547.617188 531.152344 546.253906 531.460938 544.886719 C 531.792969 545.300781 532.15625 545.679688 532.554688 546.019531 C 532.613281 546.488281 532.675781 546.949219 532.730469 547.417969 C 531.953125 547.785156 531.21875 548.3125 530.554688 548.988281 Z M 525.980469 479.414062 C 526.335938 478.601562 526.683594 477.789062 527.035156 476.980469 C 527.574219 476.78125 528.113281 476.53125 528.65625 476.179688 C 530.40625 475.042969 532.105469 473.84375 533.835938 472.683594 C 531.308594 475.023438 528.703125 477.277344 525.980469 479.414062 Z M 560.683594 557.007812 C 561.003906 556.164062 561.28125 555.296875 561.578125 554.441406 C 561.625 555.425781 561.65625 556.410156 561.671875 557.398438 C 561.355469 557.242188 561.023438 557.117188 560.683594 557.007812 Z M 560.683594 557.007812 " fill-opacity="1" fill-rule="nonzero"/></g><g clip-path="url(#8717718260)"><g clip-path="url(#d3deabdcbe)"><g clip-path="url(#800e04815d)"><path fill="#8e5f92" d="M 461.320312 377.355469 C 461.445312 369.300781 465.621094 362.828125 470.644531 362.90625 C 475.671875 362.988281 479.644531 369.574219 479.515625 377.632812 C 479.398438 385.6875 475.800781 390.035156 470.773438 389.957031 C 465.75 389.882812 461.199219 385.410156 461.320312 377.355469 Z M 461.320312 377.355469 " fill-opacity="1" fill-rule="nonzero"/></g></g></g><g clip-path="url(#3e27e79628)"><g clip-path="url(#f71b50adfc)"><g clip-path="url(#a1674b4f4b)"><path fill="#8e5f92" d="M 568.765625 439.835938 C 560.902344 436.625 600.957031 399.304688 600.957031 399.304688 C 600.957031 399.304688 558.378906 423.9375 555.707031 419.804688 C 553.046875 415.660156 575.789062 393.199219 575.789062 393.199219 C 575.789062 393.199219 362.414062 495.8125 362.417969 375.25 C 362.425781 311.070312 446.308594 294.464844 460.34375 368.339844 C 462.359375 378.957031 460.621094 345.664062 466.332031 341.613281 C 473.355469 336.632812 476.695312 365.664062 476.695312 365.664062 C 476.695312 365.664062 489.089844 270.890625 443.605469 255.195312 C 410.183594 243.671875 325.6875 292.78125 301.277344 405.371094 C 284.519531 482.683594 334.261719 526.058594 390.523438 540.902344 L 370.105469 601.035156 L 381.90625 610.855469 L 404.609375 543.992188 C 410.433594 545.035156 416.265625 545.78125 422.0625 546.234375 L 411.429688 635.417969 L 424.554688 646.359375 L 436.421875 546.78125 C 443.378906 546.757812 450.195312 546.324219 456.730469 545.449219 C 543.613281 533.863281 608.425781 420.421875 608.425781 420.421875 C 608.425781 420.421875 576.621094 443.046875 568.765625 439.835938 Z M 445.679688 274.175781 C 448.554688 274.585938 450.519531 277.382812 450.085938 280.421875 C 449.652344 283.457031 446.980469 285.601562 444.105469 285.191406 C 441.242188 284.78125 439.273438 281.980469 439.707031 278.9375 C 440.144531 275.898438 442.816406 273.769531 445.679688 274.175781 Z M 445.679688 274.175781 " fill-opacity="1" fill-rule="nonzero"/></g></g></g><g fill="#a09841" fill-opacity="1"><g transform="translate(198.988969, 798.322631)"><g><path d="M 23.0625 -8.4375 C 23.0625 -7.195312 22.78125 -6.015625 22.21875 -4.890625 C 21.644531 -3.765625 20.890625 -2.84375 19.953125 -2.125 C 18.109375 -0.707031 15.648438 0 12.578125 0 L 3.328125 0 L 3.328125 -30.203125 L 11.5 -30.203125 C 15.914062 -30.203125 18.789062 -28.84375 20.125 -26.125 C 20.59375 -25.144531 20.828125 -24.148438 20.828125 -23.140625 C 20.828125 -22.140625 20.753906 -21.359375 20.609375 -20.796875 C 20.429688 -20.203125 20.195312 -19.632812 19.90625 -19.09375 C 19.21875 -17.945312 18.34375 -17.132812 17.28125 -16.65625 C 19.0625 -16.1875 20.46875 -15.238281 21.5 -13.8125 C 22.539062 -12.363281 23.0625 -10.570312 23.0625 -8.4375 Z M 17.71875 -22.65625 C 17.71875 -25.707031 15.644531 -27.234375 11.5 -27.234375 L 6.4375 -27.234375 L 6.4375 -17.8125 L 12.390625 -17.8125 C 13.992188 -17.8125 15.285156 -18.210938 16.265625 -19.015625 C 17.234375 -19.816406 17.71875 -21.03125 17.71875 -22.65625 Z M 19.953125 -9.015625 C 19.953125 -9.898438 19.785156 -10.6875 19.453125 -11.375 C 19.097656 -12.050781 18.65625 -12.644531 18.125 -13.15625 C 16.9375 -14.1875 15.546875 -14.703125 13.953125 -14.703125 L 6.4375 -14.703125 L 6.4375 -2.96875 L 13.453125 -2.96875 C 15.347656 -2.96875 16.90625 -3.519531 18.125 -4.625 C 19.34375 -5.75 19.953125 -7.210938 19.953125 -9.015625 Z M 19.953125 -9.015625 "/></g></g></g><g fill="#a09841" fill-opacity="1"><g transform="translate(230.17593, 798.322631)"><g><path d="M 13.375 -15.5 C 12.664062 -16.15625 11.894531 -16.484375 11.0625 -16.484375 C 10.257812 -16.484375 9.578125 -16.257812 9.015625 -15.8125 C 8.421875 -15.34375 7.929688 -14.78125 7.546875 -14.125 C 6.804688 -12.820312 6.4375 -11.367188 6.4375 -9.765625 L 6.4375 0 L 3.328125 0 L 3.328125 -19.546875 L 6.4375 -19.546875 L 6.4375 -15.5 L 6.578125 -16.296875 C 7.609375 -18.734375 9.222656 -19.953125 11.421875 -19.953125 C 12.097656 -19.953125 12.75 -19.816406 13.375 -19.546875 Z M 13.375 -15.5 "/></g></g></g><g fill="#a09841" fill-opacity="1"><g transform="translate(251.234003, 798.322631)"><g><path d="M 6.484375 -26.296875 C 6.867188 -25.910156 7.0625 -25.453125 7.0625 -24.921875 C 7.0625 -24.359375 6.867188 -23.882812 6.484375 -23.5 C 6.097656 -23.113281 5.640625 -22.921875 5.109375 -22.921875 C 4.546875 -22.921875 4.070312 -23.113281 3.6875 -23.5 C 3.300781 -23.882812 3.109375 -24.359375 3.109375 -24.921875 C 3.109375 -25.453125 3.300781 -25.910156 3.6875 -26.296875 C 4.070312 -26.679688 4.546875 -26.875 5.109375 -26.875 C 5.640625 -26.875 6.097656 -26.679688 6.484375 -26.296875 Z M 6.65625 0 L 3.546875 0 L 3.546875 -19.546875 L 6.65625 -19.546875 Z M 6.65625 0 "/></g></g></g><g fill="#a09841" fill-opacity="1"><g transform="translate(268.649235, 798.322631)"><g><path d="M 16.828125 0 L 16.828125 -12.21875 C 16.828125 -13.488281 16.546875 -14.582031 15.984375 -15.5 C 15.398438 -16.382812 14.441406 -16.828125 13.109375 -16.828125 C 11.773438 -16.828125 10.691406 -16.578125 9.859375 -16.078125 C 9.035156 -15.578125 8.367188 -14.925781 7.859375 -14.125 C 6.910156 -12.644531 6.4375 -10.660156 6.4375 -8.171875 L 6.4375 0 L 3.328125 0 L 3.328125 -19.546875 L 6.4375 -19.546875 L 6.4375 -16.171875 C 7.09375 -17.265625 7.921875 -18.164062 8.921875 -18.875 C 9.992188 -19.59375 11.222656 -19.953125 12.609375 -19.953125 C 14.003906 -19.953125 15.128906 -19.757812 15.984375 -19.375 C 16.847656 -18.957031 17.578125 -18.40625 18.171875 -17.71875 C 19.359375 -16.332031 19.953125 -14.5 19.953125 -12.21875 L 19.953125 0 Z M 16.828125 0 "/></g></g></g><g fill="#a09841" fill-opacity="1"><g transform="translate(298.503448, 798.322631)"><g><path d="M 21.59375 -12.53125 L 18.21875 -12.53125 C 17.675781 -13.769531 16.84375 -14.773438 15.71875 -15.546875 C 14.59375 -16.316406 13.457031 -16.703125 12.3125 -16.703125 C 11.15625 -16.703125 10.160156 -16.523438 9.328125 -16.171875 C 8.492188 -15.785156 7.785156 -15.28125 7.203125 -14.65625 C 5.867188 -13.269531 5.203125 -11.640625 5.203125 -9.765625 C 5.203125 -7.878906 5.867188 -6.253906 7.203125 -4.890625 C 8.503906 -3.492188 10.101562 -2.796875 12 -2.796875 C 13.238281 -2.796875 14.390625 -3.125 15.453125 -3.78125 C 16.492188 -4.425781 17.3125 -5.296875 17.90625 -6.390625 L 21.40625 -6.390625 C 20.3125 -3.253906 18.195312 -1.15625 15.0625 -0.09375 C 14.082031 0.257812 12.972656 0.4375 11.734375 0.4375 C 10.484375 0.4375 9.253906 0.15625 8.046875 -0.40625 C 6.828125 -0.9375 5.773438 -1.675781 4.890625 -2.625 C 2.960938 -4.632812 2 -7.015625 2 -9.765625 C 2 -12.554688 2.960938 -14.941406 4.890625 -16.921875 C 6.835938 -18.941406 9.207031 -19.953125 12 -19.953125 C 14.25 -19.953125 16.273438 -19.253906 18.078125 -17.859375 C 19.796875 -16.523438 20.96875 -14.75 21.59375 -12.53125 Z M 21.59375 -12.53125 "/></g></g></g><g fill="#a09841" fill-opacity="1"><g transform="translate(328.890765, 798.322631)"><g><path d="M 18.875 -9.765625 C 18.875 -11.660156 18.222656 -13.320312 16.921875 -14.75 C 15.585938 -16.164062 13.945312 -16.875 12 -16.875 C 10.039062 -16.875 8.410156 -16.164062 7.109375 -14.75 C 5.773438 -13.320312 5.109375 -11.660156 5.109375 -9.765625 C 5.109375 -7.878906 5.773438 -6.222656 7.109375 -4.796875 C 8.410156 -3.378906 10.039062 -2.671875 12 -2.671875 C 13.945312 -2.671875 15.585938 -3.378906 16.921875 -4.796875 C 18.222656 -6.222656 18.875 -7.878906 18.875 -9.765625 Z M 21.984375 0 L 18.875 0 L 18.875 -3.328125 C 18.695312 -3.085938 18.519531 -2.867188 18.34375 -2.671875 C 16.476562 -0.597656 14.195312 0.4375 11.5 0.4375 C 8.8125 0.4375 6.546875 -0.597656 4.703125 -2.671875 C 2.898438 -4.679688 2 -7.046875 2 -9.765625 C 2 -12.492188 2.898438 -14.863281 4.703125 -16.875 C 6.546875 -18.945312 8.8125 -19.984375 11.5 -19.984375 C 14.195312 -19.984375 16.476562 -18.945312 18.34375 -16.875 C 18.519531 -16.664062 18.695312 -16.445312 18.875 -16.21875 L 18.875 -19.546875 L 21.984375 -19.546875 Z M 21.984375 0 "/></g></g></g><g fill="#a09841" fill-opacity="1"><g transform="translate(361.454896, 798.322631)"><g><path d="M 13.375 -15.5 C 12.664062 -16.15625 11.894531 -16.484375 11.0625 -16.484375 C 10.257812 -16.484375 9.578125 -16.257812 9.015625 -15.8125 C 8.421875 -15.34375 7.929688 -14.78125 7.546875 -14.125 C 6.804688 -12.820312 6.4375 -11.367188 6.4375 -9.765625 L 6.4375 0 L 3.328125 0 L 3.328125 -19.546875 L 6.4375 -19.546875 L 6.4375 -15.5 L 6.578125 -16.296875 C 7.609375 -18.734375 9.222656 -19.953125 11.421875 -19.953125 C 12.097656 -19.953125 12.75 -19.816406 13.375 -19.546875 Z M 13.375 -15.5 "/></g></g></g><g fill="#a09841" fill-opacity="1"><g transform="translate(382.512965, 798.322631)"><g/></g></g><g fill="#a09841" fill-opacity="1"><g transform="translate(401.749608, 798.322631)"><g><path d="M 16.828125 0 L 16.828125 -12.21875 C 16.828125 -13.488281 16.546875 -14.582031 15.984375 -15.5 C 15.398438 -16.382812 14.441406 -16.828125 13.109375 -16.828125 C 11.773438 -16.828125 10.691406 -16.578125 9.859375 -16.078125 C 9.035156 -15.578125 8.367188 -14.925781 7.859375 -14.125 C 6.910156 -12.644531 6.4375 -10.660156 6.4375 -8.171875 L 6.4375 0 L 3.328125 0 L 3.328125 -19.546875 L 6.4375 -19.546875 L 6.4375 -16.171875 C 7.09375 -17.265625 7.921875 -18.164062 8.921875 -18.875 C 9.992188 -19.59375 11.222656 -19.953125 12.609375 -19.953125 C 14.003906 -19.953125 15.128906 -19.757812 15.984375 -19.375 C 16.847656 -18.957031 17.578125 -18.40625 18.171875 -17.71875 C 19.359375 -16.332031 19.953125 -14.5 19.953125 -12.21875 L 19.953125 0 Z M 16.828125 0 "/></g></g></g><g fill="#a09841" fill-opacity="1"><g transform="translate(431.603822, 798.322631)"><g><path d="M 18.875 -9.765625 C 18.875 -11.660156 18.222656 -13.320312 16.921875 -14.75 C 15.585938 -16.164062 13.945312 -16.875 12 -16.875 C 10.039062 -16.875 8.410156 -16.164062 7.109375 -14.75 C 5.773438 -13.320312 5.109375 -11.660156 5.109375 -9.765625 C 5.109375 -7.878906 5.773438 -6.222656 7.109375 -4.796875 C 8.410156 -3.378906 10.039062 -2.671875 12 -2.671875 C 13.945312 -2.671875 15.585938 -3.378906 16.921875 -4.796875 C 18.222656 -6.222656 18.875 -7.878906 18.875 -9.765625 Z M 21.984375 0 L 18.875 0 L 18.875 -3.328125 C 18.695312 -3.085938 18.519531 -2.867188 18.34375 -2.671875 C 16.476562 -0.597656 14.195312 0.4375 11.5 0.4375 C 8.8125 0.4375 6.546875 -0.597656 4.703125 -2.671875 C 2.898438 -4.679688 2 -7.046875 2 -9.765625 C 2 -12.492188 2.898438 -14.863281 4.703125 -16.875 C 6.546875 -18.945312 8.8125 -19.984375 11.5 -19.984375 C 14.195312 -19.984375 16.476562 -18.945312 18.34375 -16.875 C 18.519531 -16.664062 18.695312 -16.445312 18.875 -16.21875 L 18.875 -19.546875 L 21.984375 -19.546875 Z M 21.984375 0 "/></g></g></g><g fill="#a09841" fill-opacity="1"><g transform="translate(464.167967, 798.322631)"><g><path d="M 6.171875 -2.796875 C 6.941406 -2.265625 7.953125 -2 9.203125 -2 C 12.035156 -2 13.453125 -3.066406 13.453125 -5.203125 C 13.453125 -6.441406 12.429688 -7.390625 10.390625 -8.046875 C 9.535156 -8.335938 8.617188 -8.601562 7.640625 -8.84375 C 6.628906 -9.082031 5.695312 -9.390625 4.84375 -9.765625 C 3.832031 -10.242188 3.078125 -10.835938 2.578125 -11.546875 C 2.078125 -12.253906 1.828125 -13.097656 1.828125 -14.078125 C 1.828125 -16.035156 2.503906 -17.503906 3.859375 -18.484375 C 5.222656 -19.484375 6.851562 -19.984375 8.75 -19.984375 C 10.644531 -19.984375 12.210938 -19.597656 13.453125 -18.828125 C 14.703125 -18.066406 15.546875 -16.691406 15.984375 -14.703125 L 12.65625 -14.703125 C 12.300781 -15.796875 11.785156 -16.519531 11.109375 -16.875 C 10.453125 -17.226562 9.632812 -17.40625 8.65625 -17.40625 C 7.6875 -17.40625 6.859375 -17.203125 6.171875 -16.796875 C 5.460938 -16.347656 5.109375 -15.695312 5.109375 -14.84375 C 5.109375 -13.945312 5.40625 -13.289062 6 -12.875 C 6.5625 -12.5 7.269531 -12.160156 8.125 -11.859375 C 8.988281 -11.585938 9.921875 -11.351562 10.921875 -11.15625 C 11.898438 -10.914062 12.832031 -10.585938 13.71875 -10.171875 C 15.738281 -9.222656 16.75 -7.695312 16.75 -5.59375 C 16.75 -3.488281 15.992188 -1.9375 14.484375 -0.9375 C 13.710938 -0.425781 12.867188 -0.0390625 11.953125 0.21875 C 11.054688 0.457031 10.078125 0.578125 9.015625 0.578125 C 4.484375 0.578125 1.878906 -1.4375 1.203125 -5.46875 L 4.484375 -5.46875 C 4.804688 -4.1875 5.367188 -3.296875 6.171875 -2.796875 Z M 6.171875 -2.796875 "/></g></g></g><g fill="#a09841" fill-opacity="1"><g transform="translate(489.268721, 798.322631)"><g/></g></g><g fill="#a09841" fill-opacity="1"><g transform="translate(508.505379, 798.322631)"><g><path d="M 13.8125 -30.421875 L 11.15625 -30.421875 C 10.113281 -30.421875 9.429688 -30.1875 9.109375 -29.71875 C 8.785156 -29.238281 8.625 -28.660156 8.625 -27.984375 L 8.625 -19.546875 L 13.8125 -19.546875 L 13.8125 -16.65625 L 8.625 -16.65625 L 8.625 0 L 5.515625 0 L 5.515625 -16.65625 L 1.5625 -16.65625 L 1.5625 -19.546875 L 5.515625 -19.546875 L 5.515625 -27.09375 C 5.515625 -29.082031 5.988281 -30.625 6.9375 -31.71875 C 7.851562 -32.78125 9.40625 -33.3125 11.59375 -33.3125 L 13.8125 -33.3125 Z M 13.8125 -30.421875 "/></g></g></g><g fill="#a09841" fill-opacity="1"><g transform="translate(530.896201, 798.322631)"><g><path d="M 22.4375 -10.21875 L 22.4375 -8.578125 L 5.234375 -8.578125 C 5.535156 -6.890625 6.351562 -5.507812 7.6875 -4.4375 C 9.050781 -3.34375 10.5625 -2.796875 12.21875 -2.796875 C 13.34375 -2.796875 14.421875 -3.0625 15.453125 -3.59375 C 16.460938 -4.101562 17.304688 -4.816406 17.984375 -5.734375 L 21.546875 -5.734375 C 20.710938 -3.867188 19.46875 -2.398438 17.8125 -1.328125 C 16.125 -0.234375 14.421875 0.3125 12.703125 0.3125 C 10.953125 0.3125 9.472656 0.046875 8.265625 -0.484375 C 7.015625 -1.015625 5.929688 -1.742188 5.015625 -2.671875 C 3.003906 -4.617188 2 -7.015625 2 -9.859375 C 2 -12.671875 3.003906 -15.085938 5.015625 -17.109375 C 7.003906 -19.085938 9.40625 -20.078125 12.21875 -20.078125 C 14.9375 -20.078125 17.320312 -19.113281 19.375 -17.1875 C 21.414062 -15.238281 22.4375 -12.914062 22.4375 -10.21875 Z M 19.140625 -11.234375 C 18.785156 -12.890625 17.957031 -14.269531 16.65625 -15.375 C 15.351562 -16.4375 13.875 -16.96875 12.21875 -16.96875 C 9.664062 -16.96875 7.664062 -15.828125 6.21875 -13.546875 C 5.769531 -12.835938 5.457031 -12.066406 5.28125 -11.234375 Z M 18.125 -30.25 L 13.234375 -23.90625 L 10.75 -23.90625 L 14.296875 -30.25 Z M 18.125 -30.25 "/></g></g></g><g fill="#a09841" fill-opacity="1"><g transform="translate(562.571825, 798.322631)"><g><path d="M 13.375 -15.5 C 12.664062 -16.15625 11.894531 -16.484375 11.0625 -16.484375 C 10.257812 -16.484375 9.578125 -16.257812 9.015625 -15.8125 C 8.421875 -15.34375 7.929688 -14.78125 7.546875 -14.125 C 6.804688 -12.820312 6.4375 -11.367188 6.4375 -9.765625 L 6.4375 0 L 3.328125 0 L 3.328125 -19.546875 L 6.4375 -19.546875 L 6.4375 -15.5 L 6.578125 -16.296875 C 7.609375 -18.734375 9.222656 -19.953125 11.421875 -19.953125 C 12.097656 -19.953125 12.75 -19.816406 13.375 -19.546875 Z M 13.375 -15.5 "/></g></g></g><g fill="#a09841" fill-opacity="1"><g transform="translate(583.629894, 798.322631)"><g><path d="M 6.484375 -26.296875 C 6.867188 -25.910156 7.0625 -25.453125 7.0625 -24.921875 C 7.0625 -24.359375 6.867188 -23.882812 6.484375 -23.5 C 6.097656 -23.113281 5.640625 -22.921875 5.109375 -22.921875 C 4.546875 -22.921875 4.070312 -23.113281 3.6875 -23.5 C 3.300781 -23.882812 3.109375 -24.359375 3.109375 -24.921875 C 3.109375 -25.453125 3.300781 -25.910156 3.6875 -26.296875 C 4.070312 -26.679688 4.546875 -26.875 5.109375 -26.875 C 5.640625 -26.875 6.097656 -26.679688 6.484375 -26.296875 Z M 6.65625 0 L 3.546875 0 L 3.546875 -19.546875 L 6.65625 -19.546875 Z M 6.65625 0 "/></g></g></g><g fill="#a09841" fill-opacity="1"><g transform="translate(601.045111, 798.322631)"><g><path d="M 18.875 -9.765625 C 18.875 -11.660156 18.222656 -13.320312 16.921875 -14.75 C 15.585938 -16.164062 13.945312 -16.875 12 -16.875 C 10.039062 -16.875 8.410156 -16.164062 7.109375 -14.75 C 5.773438 -13.320312 5.109375 -11.660156 5.109375 -9.765625 C 5.109375 -7.878906 5.773438 -6.222656 7.109375 -4.796875 C 8.410156 -3.378906 10.039062 -2.671875 12 -2.671875 C 13.945312 -2.671875 15.585938 -3.378906 16.921875 -4.796875 C 18.222656 -6.222656 18.875 -7.878906 18.875 -9.765625 Z M 21.984375 0 L 18.875 0 L 18.875 -3.328125 C 18.695312 -3.085938 18.519531 -2.867188 18.34375 -2.671875 C 16.476562 -0.597656 14.195312 0.4375 11.5 0.4375 C 8.8125 0.4375 6.546875 -0.597656 4.703125 -2.671875 C 2.898438 -4.679688 2 -7.046875 2 -9.765625 C 2 -12.492188 2.898438 -14.863281 4.703125 -16.875 C 6.546875 -18.945312 8.8125 -19.984375 11.5 -19.984375 C 14.195312 -19.984375 16.476562 -18.945312 18.34375 -16.875 C 18.519531 -16.664062 18.695312 -16.445312 18.875 -16.21875 L 18.875 -19.546875 L 21.984375 -19.546875 Z M 21.984375 0 "/></g></g></g><g fill="#a09841" fill-opacity="1"><g transform="translate(633.609256, 798.322631)"><g><path d="M 6.171875 -2.796875 C 6.941406 -2.265625 7.953125 -2 9.203125 -2 C 12.035156 -2 13.453125 -3.066406 13.453125 -5.203125 C 13.453125 -6.441406 12.429688 -7.390625 10.390625 -8.046875 C 9.535156 -8.335938 8.617188 -8.601562 7.640625 -8.84375 C 6.628906 -9.082031 5.695312 -9.390625 4.84375 -9.765625 C 3.832031 -10.242188 3.078125 -10.835938 2.578125 -11.546875 C 2.078125 -12.253906 1.828125 -13.097656 1.828125 -14.078125 C 1.828125 -16.035156 2.503906 -17.503906 3.859375 -18.484375 C 5.222656 -19.484375 6.851562 -19.984375 8.75 -19.984375 C 10.644531 -19.984375 12.210938 -19.597656 13.453125 -18.828125 C 14.703125 -18.066406 15.546875 -16.691406 15.984375 -14.703125 L 12.65625 -14.703125 C 12.300781 -15.796875 11.785156 -16.519531 11.109375 -16.875 C 10.453125 -17.226562 9.632812 -17.40625 8.65625 -17.40625 C 7.6875 -17.40625 6.859375 -17.203125 6.171875 -16.796875 C 5.460938 -16.347656 5.109375 -15.695312 5.109375 -14.84375 C 5.109375 -13.945312 5.40625 -13.289062 6 -12.875 C 6.5625 -12.5 7.269531 -12.160156 8.125 -11.859375 C 8.988281 -11.585938 9.921875 -11.351562 10.921875 -11.15625 C 11.898438 -10.914062 12.832031 -10.585938 13.71875 -10.171875 C 15.738281 -9.222656 16.75 -7.695312 16.75 -5.59375 C 16.75 -3.488281 15.992188 -1.9375 14.484375 -0.9375 C 13.710938 -0.425781 12.867188 -0.0390625 11.953125 0.21875 C 11.054688 0.457031 10.078125 0.578125 9.015625 0.578125 C 4.484375 0.578125 1.878906 -1.4375 1.203125 -5.46875 L 4.484375 -5.46875 C 4.804688 -4.1875 5.367188 -3.296875 6.171875 -2.796875 Z M 6.171875 -2.796875 "/></g></g></g></svg>